DavidHadashUpright-Light_draw_HB.ufo
<glyph name="plus" format="1">
  <advance width="1018"/>
  <unicode hex="002B"/>
  <outline>
    <contour>
      <point x="439" y="199" type="curve"/>
      <point x="439" y="176"/>
      <point x="450" y="171"/>
      <point x="468" y="171" type="curve" smooth="yes"/>
      <point x="545" y="171" type="line" smooth="yes"/>
      <point x="561" y="171"/>
      <point x="571" y="176"/>
      <point x="571" y="199" type="curve" smooth="yes"/>
      <point x="571" y="199"/>
      <point x="568" y="378"/>
      <point x="566" y="506" type="curve"/>
      <point x="663" y="503"/>
      <point x="871" y="500"/>
      <point x="871" y="500" type="curve"/>
      <point x="894" y="500"/>
      <point x="900" y="511"/>
      <point x="900" y="527" type="curve" smooth="yes"/>
      <point x="900" y="604" type="line" smooth="yes"/>
      <point x="900" y="629"/>
      <point x="891" y="633"/>
      <point x="874" y="633" type="curve" smooth="yes"/>
      <point x="874" y="633"/>
      <point x="677" y="627"/>
      <point x="566" y="627" type="curve"/>
      <point x="566" y="727"/>
      <point x="571" y="923"/>
      <point x="571" y="923" type="curve"/>
      <point x="571" y="946"/>
      <point x="561" y="951"/>
      <point x="545" y="951" type="curve" smooth="yes"/>
      <point x="468" y="951" type="line" smooth="yes"/>
      <point x="443" y="951"/>
      <point x="439" y="937"/>
      <point x="439" y="927" type="curve" smooth="yes"/>
      <point x="439" y="927"/>
      <point x="443" y="740"/>
      <point x="445" y="627" type="curve"/>
      <point x="315" y="629"/>
      <point x="147" y="633"/>
      <point x="147" y="633" type="curve"/>
      <point x="123" y="633"/>
      <point x="118" y="622"/>
      <point x="118" y="604" type="curve" smooth="yes"/>
      <point x="118" y="527" type="line" smooth="yes"/>
      <point x="118" y="511"/>
      <point x="123" y="500"/>
      <point x="147" y="500" type="curve" smooth="yes"/>
      <point x="147" y="500"/>
      <point x="319" y="503"/>
      <point x="445" y="506" type="curve"/>
      <point x="443" y="375"/>
      <point x="439" y="199"/>
    </contour>
  </outline>
</glyph>
<glyph name="hyphen" format="1">
  <advance width="730"/>
  <unicode hex="002D"/>
  <outline>
    <contour>
      <point x="174" y="977" type="curve" smooth="yes"/>
      <point x="190" y="991"/>
      <point x="202" y="991"/>
      <point x="215" y="991" type="curve"/>
      <point x="636" y="991" type="line"/>
      <point x="656" y="991"/>
      <point x="663" y="984"/>
      <point x="663" y="973" type="curve" smooth="yes"/>
      <point x="663" y="966"/>
      <point x="658" y="956"/>
      <point x="652" y="948" type="curve" smooth="yes"/>
      <point x="626" y="907"/>
      <point x="600" y="869"/>
      <point x="571" y="837" type="curve" smooth="yes"/>
      <point x="559" y="823"/>
      <point x="547" y="823"/>
      <point x="527" y="823" type="curve" smooth="yes"/>
      <point x="104" y="823" type="line"/>
      <point x="84" y="823"/>
      <point x="77" y="830"/>
      <point x="77" y="838" type="curve" smooth="yes"/>
      <point x="77" y="844"/>
      <point x="79" y="850"/>
      <point x="81" y="853" type="curve" smooth="yes"/>
      <point x="109" y="900"/>
      <point x="154" y="957"/>
    </contour>
  </outline>
</glyph>
<glyph name="three" format="1">
  <advance width="1018"/>
  <unicode hex="0033"/>
  <outline>
    <contour>
      <point x="226" y="159" type="curve" smooth="yes"/>
      <point x="235" y="169"/>
      <point x="242" y="181"/>
      <point x="249" y="181" type="curve" smooth="yes"/>
      <point x="251" y="181"/>
      <point x="255" y="179"/>
      <point x="256" y="179" type="curve" smooth="yes"/>
      <point x="323" y="158"/>
      <point x="400" y="138"/>
      <point x="460" y="138" type="curve" smooth="yes"/>
      <point x="549" y="138"/>
      <point x="611" y="163"/>
      <point x="652" y="204" type="curve" smooth="yes"/>
      <point x="683" y="236"/>
      <point x="708" y="296"/>
      <point x="708" y="342" type="curve" smooth="yes"/>
      <point x="708" y="421"/>
      <point x="681" y="470"/>
      <point x="624" y="516" type="curve" smooth="yes"/>
      <point x="573" y="557"/>
      <point x="434" y="588"/>
      <point x="335" y="588" type="curve" smooth="yes"/>
      <point x="326" y="588"/>
      <point x="325" y="593"/>
      <point x="325" y="599" type="curve" smooth="yes"/>
      <point x="325" y="602"/>
      <point x="326" y="606"/>
      <point x="328" y="609" type="curve" smooth="yes"/>
      <point x="355" y="647"/>
      <point x="380" y="688"/>
      <point x="405" y="715" type="curve" smooth="yes"/>
      <point x="416" y="727"/>
      <point x="432" y="735"/>
      <point x="459" y="742" type="curve" smooth="yes"/>
      <point x="520" y="758"/>
      <point x="634" y="823"/>
      <point x="634" y="921" type="curve" smooth="yes"/>
      <point x="634" y="1004"/>
      <point x="573" y="1029"/>
      <point x="539" y="1043" type="curve" smooth="yes"/>
      <point x="473" y="1072"/>
      <point x="366" y="1091"/>
      <point x="249" y="1091" type="curve" smooth="yes"/>
      <point x="236" y="1091"/>
      <point x="228" y="1096"/>
      <point x="228" y="1108" type="curve" smooth="yes"/>
      <point x="228" y="1113"/>
      <point x="229" y="1118"/>
      <point x="233" y="1125" type="curve" smooth="yes"/>
      <point x="249" y="1149"/>
      <point x="289" y="1197"/>
      <point x="339" y="1255" type="curve" smooth="yes"/>
      <point x="346" y="1262"/>
      <point x="355" y="1267"/>
      <point x="366" y="1267" type="curve" smooth="yes"/>
      <point x="407" y="1267"/>
      <point x="609" y="1251"/>
      <point x="704" y="1178" type="curve" smooth="yes"/>
      <point x="774" y="1124"/>
      <point x="792" y="1068"/>
      <point x="792" y="1002" type="curve" smooth="yes"/>
      <point x="792" y="927"/>
      <point x="754" y="830"/>
      <point x="629" y="746" type="curve" smooth="yes"/>
      <point x="624" y="742"/>
      <point x="622" y="739"/>
      <point x="622" y="735" type="curve" smooth="yes"/>
      <point x="622" y="730"/>
      <point x="629" y="722"/>
      <point x="640" y="718" type="curve" smooth="yes"/>
      <point x="785" y="672"/>
      <point x="871" y="556"/>
      <point x="871" y="438" type="curve" smooth="yes"/>
      <point x="871" y="299"/>
      <point x="780" y="149"/>
      <point x="674" y="65" type="curve" smooth="yes"/>
      <point x="588" y="-4"/>
      <point x="491" y="-27"/>
      <point x="416" y="-27" type="curve" smooth="yes"/>
      <point x="321" y="-27"/>
      <point x="210" y="-2"/>
      <point x="158" y="22" type="curve" smooth="yes"/>
      <point x="147" y="27"/>
      <point x="138" y="31"/>
      <point x="138" y="38" type="curve" smooth="yes"/>
      <point x="138" y="41"/>
      <point x="142" y="46"/>
      <point x="144" y="50" type="curve" smooth="yes"/>
      <point x="165" y="86"/>
      <point x="210" y="144"/>
    </contour>
  </outline>
</glyph>
<glyph name="seven" format="1">
  <advance width="1018"/>
  <unicode hex="0037"/>
  <outline>
    <contour>
      <point x="244" y="183" type="curve" smooth="yes"/>
      <point x="284" y="287"/>
      <point x="383" y="450"/>
      <point x="486" y="624" type="curve" smooth="yes"/>
      <point x="573" y="771"/>
      <point x="676" y="946"/>
      <point x="676" y="1012" type="curve" smooth="yes"/>
      <point x="676" y="1027"/>
      <point x="665" y="1031"/>
      <point x="648" y="1031" type="curve" smooth="yes"/>
      <point x="127" y="1031" type="line"/>
      <point x="106" y="1031"/>
      <point x="88" y="1048"/>
      <point x="88" y="1068" type="curve" smooth="yes"/>
      <point x="88" y="1074"/>
      <point x="91" y="1077"/>
      <point x="93" y="1082" type="curve" smooth="yes"/>
      <point x="135" y="1158"/>
      <point x="192" y="1233"/>
      <point x="231" y="1274" type="curve" smooth="yes"/>
      <point x="236" y="1279"/>
      <point x="246" y="1286"/>
      <point x="251" y="1286" type="curve" smooth="yes"/>
      <point x="262" y="1286"/>
      <point x="270" y="1278"/>
      <point x="274" y="1264" type="curve" smooth="yes"/>
      <point x="289" y="1209"/>
      <point x="301" y="1204"/>
      <point x="373" y="1204" type="curve" smooth="yes"/>
      <point x="900" y="1204" type="line"/>
      <point x="930" y="1204"/>
      <point x="932" y="1190"/>
      <point x="932" y="1180" type="curve" smooth="yes"/>
      <point x="932" y="1161"/>
      <point x="918" y="1127"/>
      <point x="898" y="1084" type="curve" smooth="yes"/>
      <point x="846" y="970"/>
      <point x="696" y="753"/>
      <point x="643" y="672" type="curve" smooth="yes"/>
      <point x="568" y="559"/>
      <point x="472" y="396"/>
      <point x="436" y="277" type="curve" smooth="yes"/>
      <point x="423" y="238"/>
      <point x="409" y="188"/>
      <point x="409" y="171" type="curve" smooth="yes"/>
      <point x="409" y="152"/>
      <point x="400" y="133"/>
      <point x="390" y="120" type="curve" smooth="yes"/>
      <point x="359" y="74"/>
      <point x="298" y="14"/>
      <point x="248" y="-25" type="curve" smooth="yes"/>
      <point x="240" y="-32"/>
      <point x="226" y="-41"/>
      <point x="219" y="-41" type="curve" smooth="yes"/>
      <point x="210" y="-41"/>
      <point x="204" y="-34"/>
      <point x="204" y="-25" type="curve" smooth="yes"/>
      <point x="204" y="55"/>
      <point x="224" y="127"/>
    </contour>
  </outline>
</glyph>
<glyph name="nine" format="1">
  <advance width="1018"/>
  <unicode hex="0039"/>
  <outline>
    <contour>
      <point x="586" y="457" type="curve" smooth="yes"/>
      <point x="586" y="462"/>
      <point x="585" y="466"/>
      <point x="579" y="466" type="curve" smooth="yes"/>
      <point x="573" y="466"/>
      <point x="518" y="443"/>
      <point x="453" y="443" type="curve" smooth="yes"/>
      <point x="375" y="443"/>
      <point x="292" y="473"/>
      <point x="228" y="537" type="curve" smooth="yes"/>
      <point x="159" y="607"/>
      <point x="116" y="696"/>
      <point x="116" y="814" type="curve" smooth="yes"/>
      <point x="116" y="928"/>
      <point x="156" y="1012"/>
      <point x="221" y="1098" type="curve" smooth="yes"/>
      <point x="289" y="1190"/>
      <point x="409" y="1267"/>
      <point x="536" y="1267" type="curve" smooth="yes"/>
      <point x="739" y="1267"/>
      <point x="923" y="1088"/>
      <point x="923" y="884" type="curve" smooth="yes"/>
      <point x="923" y="758"/>
      <point x="872" y="641"/>
      <point x="810" y="537" type="curve" smooth="yes"/>
      <point x="747" y="432"/>
      <point x="593" y="207"/>
      <point x="545" y="140" type="curve" smooth="yes"/>
      <point x="529" y="118"/>
      <point x="511" y="99"/>
      <point x="500" y="88" type="curve" smooth="yes"/>
      <point x="470" y="61"/>
      <point x="321" y="-45"/>
      <point x="285" y="-45" type="curve" smooth="yes"/>
      <point x="272" y="-45"/>
      <point x="267" y="-32"/>
      <point x="267" y="-22" type="curve" smooth="yes"/>
      <point x="267" y="-14"/>
      <point x="270" y="-7"/>
      <point x="274" y="0" type="curve" smooth="yes"/>
      <point x="303" y="43"/>
      <point x="586" y="450"/>
    </contour>
    <contour>
      <point x="470" y="1104" type="curve" smooth="yes"/>
      <point x="395" y="1104"/>
      <point x="330" y="1062"/>
      <point x="292" y="1002" type="curve" smooth="yes"/>
      <point x="267" y="963"/>
      <point x="262" y="916"/>
      <point x="262" y="872" type="curve" smooth="yes"/>
      <point x="262" y="771"/>
      <point x="298" y="708"/>
      <point x="349" y="660" type="curve" smooth="yes"/>
      <point x="396" y="619"/>
      <point x="473" y="595"/>
      <point x="537" y="595" type="curve" smooth="yes"/>
      <point x="606" y="595"/>
      <point x="645" y="613"/>
      <point x="683" y="650" type="curve" smooth="yes"/>
      <point x="722" y="690"/>
      <point x="756" y="754"/>
      <point x="756" y="844" type="curve" smooth="yes"/>
      <point x="756" y="1007"/>
      <point x="620" y="1104"/>
    </contour>
  </outline>
</glyph>
<glyph name="semicolon" format="1">
  <advance width="732"/>
  <unicode hex="003B"/>
  <outline>
    <contour>
      <point x="310" y="-22" type="curve" smooth="yes"/>
      <point x="310" y="36"/>
      <point x="294" y="82"/>
      <point x="285" y="108" type="curve" smooth="yes"/>
      <point x="284" y="113"/>
      <point x="282" y="116"/>
      <point x="282" y="122" type="curve" smooth="yes"/>
      <point x="282" y="127"/>
      <point x="284" y="133"/>
      <point x="287" y="138" type="curve" smooth="yes"/>
      <point x="306" y="166"/>
      <point x="355" y="228"/>
      <point x="387" y="265" type="curve" smooth="yes"/>
      <point x="393" y="270"/>
      <point x="398" y="272"/>
      <point x="403" y="272" type="curve" smooth="yes"/>
      <point x="409" y="272"/>
      <point x="414" y="269"/>
      <point x="417" y="263" type="curve" smooth="yes"/>
      <point x="434" y="235"/>
      <point x="475" y="156"/>
      <point x="475" y="81" type="curve" smooth="yes"/>
      <point x="475" y="18"/>
      <point x="455" y="-38"/>
      <point x="441" y="-72" type="curve" smooth="yes"/>
      <point x="423" y="-115"/>
      <point x="272" y="-390"/>
      <point x="248" y="-390" type="curve" smooth="yes"/>
      <point x="240" y="-390"/>
      <point x="229" y="-387"/>
      <point x="229" y="-378" type="curve" smooth="yes"/>
      <point x="229" y="-355"/>
      <point x="310" y="-99"/>
    </contour>
    <contour>
      <point x="248" y="564" type="curve" smooth="yes"/>
      <point x="242" y="571"/>
      <point x="238" y="581"/>
      <point x="238" y="586" type="curve" smooth="yes"/>
      <point x="238" y="592"/>
      <point x="240" y="597"/>
      <point x="244" y="600" type="curve" smooth="yes"/>
      <point x="277" y="634"/>
      <point x="313" y="676"/>
      <point x="332" y="703" type="curve" smooth="yes"/>
      <point x="337" y="710"/>
      <point x="342" y="711"/>
      <point x="347" y="711" type="curve" smooth="yes"/>
      <point x="355" y="711"/>
      <point x="359" y="708"/>
      <point x="364" y="704" type="curve" smooth="yes"/>
      <point x="385" y="690"/>
      <point x="450" y="622"/>
      <point x="468" y="611" type="curve" smooth="yes"/>
      <point x="475" y="606"/>
      <point x="482" y="599"/>
      <point x="482" y="590" type="curve" smooth="yes"/>
      <point x="482" y="583"/>
      <point x="479" y="579"/>
      <point x="473" y="568" type="curve" smooth="yes"/>
      <point x="462" y="547"/>
      <point x="405" y="480"/>
      <point x="380" y="464" type="curve" smooth="yes"/>
      <point x="376" y="462"/>
      <point x="371" y="460"/>
      <point x="368" y="460" type="curve" smooth="yes"/>
      <point x="364" y="460"/>
      <point x="359" y="462"/>
      <point x="355" y="464" type="curve" smooth="yes"/>
      <point x="328" y="480"/>
      <point x="272" y="534"/>
    </contour>
  </outline>
</glyph>
<glyph name="less" format="1">
  <advance width="1018"/>
  <unicode hex="003C"/>
  <outline>
    <contour>
      <point x="513" y="319" type="curve"/>
      <point x="600" y="269"/>
      <point x="803" y="151"/>
      <point x="803" y="151" type="curve" smooth="yes"/>
      <point x="809" y="147"/>
      <point x="814" y="145"/>
      <point x="819" y="145" type="curve" smooth="yes"/>
      <point x="826" y="145"/>
      <point x="831" y="151"/>
      <point x="838" y="163" type="curve" smooth="yes"/>
      <point x="876" y="231" type="line"/>
      <point x="880" y="236"/>
      <point x="882" y="240"/>
      <point x="882" y="246" type="curve" smooth="yes"/>
      <point x="882" y="253"/>
      <point x="879" y="260"/>
      <point x="865" y="267" type="curve" smooth="yes"/>
      <point x="865" y="267"/>
      <point x="645" y="383"/>
      <point x="573" y="423" type="curve" smooth="yes"/>
      <point x="520" y="453"/>
      <point x="400" y="520"/>
      <point x="317" y="568" type="curve"/>
      <point x="571" y="711" type="line" smooth="yes"/>
      <point x="643" y="751"/>
      <point x="864" y="867"/>
      <point x="864" y="867" type="curve" smooth="yes"/>
      <point x="876" y="874"/>
      <point x="880" y="882"/>
      <point x="880" y="889" type="curve" smooth="yes"/>
      <point x="880" y="894"/>
      <point x="879" y="898"/>
      <point x="874" y="903" type="curve"/>
      <point x="837" y="971" type="line" smooth="yes"/>
      <point x="830" y="984"/>
      <point x="824" y="989"/>
      <point x="817" y="989" type="curve" smooth="yes"/>
      <point x="812" y="989"/>
      <point x="807" y="987"/>
      <point x="801" y="984" type="curve" smooth="yes"/>
      <point x="801" y="984"/>
      <point x="599" y="865"/>
      <point x="511" y="816" type="curve" smooth="yes"/>
      <point x="409" y="760"/>
      <point x="306" y="701"/>
      <point x="165" y="631" type="curve" smooth="yes"/>
      <point x="145" y="622"/>
      <point x="135" y="617"/>
      <point x="135" y="597" type="curve" smooth="yes"/>
      <point x="135" y="537" type="line" smooth="yes"/>
      <point x="135" y="516"/>
      <point x="151" y="513"/>
      <point x="163" y="506" type="curve" smooth="yes"/>
      <point x="208" y="480"/>
      <point x="513" y="319"/>
    </contour>
  </outline>
</glyph>
<glyph name="bracketleft" format="1">
  <advance width="732"/>
  <unicode hex="005B"/>
  <outline>
    <contour>
      <point x="142" y="-125" type="curve" smooth="yes"/>
      <point x="142" y="101"/>
      <point x="152" y="326"/>
      <point x="152" y="552" type="curve" smooth="yes"/>
      <point x="152" y="735"/>
      <point x="135" y="1023"/>
      <point x="135" y="1096" type="curve" smooth="yes"/>
      <point x="135" y="1170"/>
      <point x="169" y="1242"/>
      <point x="248" y="1242" type="curve"/>
      <point x="629" y="1242" type="line"/>
      <point x="640" y="1242"/>
      <point x="647" y="1242"/>
      <point x="647" y="1236" type="curve" smooth="yes"/>
      <point x="647" y="1235"/>
      <point x="645" y="1231"/>
      <point x="641" y="1228" type="curve" smooth="yes"/>
      <point x="619" y="1199"/>
      <point x="590" y="1168"/>
      <point x="564" y="1151" type="curve" smooth="yes"/>
      <point x="550" y="1140"/>
      <point x="545" y="1138"/>
      <point x="534" y="1138" type="curve"/>
      <point x="335" y="1138" type="line"/>
      <point x="312" y="1138"/>
      <point x="277" y="1118"/>
      <point x="276" y="1077" type="curve" smooth="yes"/>
      <point x="272" y="1007"/>
      <point x="270" y="613"/>
      <point x="270" y="541" type="curve" smooth="yes"/>
      <point x="270" y="477"/>
      <point x="279" y="25"/>
      <point x="282" y="-81" type="curve" smooth="yes"/>
      <point x="282" y="-123"/>
      <point x="303" y="-144"/>
      <point x="340" y="-144" type="curve"/>
      <point x="617" y="-144" type="line"/>
      <point x="636" y="-144"/>
      <point x="645" y="-145"/>
      <point x="645" y="-152" type="curve" smooth="yes"/>
      <point x="645" y="-156"/>
      <point x="643" y="-158"/>
      <point x="634" y="-171" type="curve" smooth="yes"/>
      <point x="619" y="-190"/>
      <point x="593" y="-221"/>
      <point x="566" y="-238" type="curve" smooth="yes"/>
      <point x="556" y="-246"/>
      <point x="545" y="-246"/>
      <point x="532" y="-246" type="curve" smooth="yes"/>
      <point x="296" y="-246" type="line"/>
      <point x="272" y="-246"/>
      <point x="215" y="-244"/>
      <point x="185" y="-221" type="curve" smooth="yes"/>
      <point x="154" y="-195"/>
      <point x="142" y="-166"/>
    </contour>
  </outline>
</glyph>
<glyph name="asciicircum" format="1">
  <advance width="1018"/>
  <unicode hex="005E"/>
  <outline>
    <contour>
      <point x="573" y="1222" type="line"/>
      <point x="563" y="1242"/>
      <point x="556" y="1253"/>
      <point x="539" y="1253" type="curve" smooth="yes"/>
      <point x="480" y="1253" type="line" smooth="yes"/>
      <point x="462" y="1253"/>
      <point x="455" y="1240"/>
      <point x="446" y="1222" type="curve" smooth="yes"/>
      <point x="412" y="1158"/>
      <point x="317" y="975"/>
      <point x="270" y="894" type="curve" smooth="yes"/>
      <point x="221" y="807"/>
      <point x="72" y="557"/>
      <point x="72" y="557" type="curve"/>
      <point x="70" y="554"/>
      <point x="68" y="549"/>
      <point x="68" y="543" type="curve" smooth="yes"/>
      <point x="68" y="536"/>
      <point x="72" y="527"/>
      <point x="84" y="520" type="curve" smooth="yes"/>
      <point x="156" y="480" type="line" smooth="yes"/>
      <point x="161" y="477"/>
      <point x="165" y="475"/>
      <point x="171" y="475" type="curve" smooth="yes"/>
      <point x="178" y="475"/>
      <point x="185" y="480"/>
      <point x="193" y="491" type="curve"/>
      <point x="193" y="491"/>
      <point x="333" y="760"/>
      <point x="375" y="831" type="curve" smooth="yes"/>
      <point x="508" y="1068" type="line"/>
      <point x="554" y="991"/>
      <point x="607" y="891"/>
      <point x="643" y="828" type="curve" smooth="yes"/>
      <point x="694" y="740"/>
      <point x="828" y="484"/>
      <point x="828" y="484" type="curve"/>
      <point x="831" y="479"/>
      <point x="838" y="470"/>
      <point x="851" y="470" type="curve" smooth="yes"/>
      <point x="857" y="470"/>
      <point x="862" y="472"/>
      <point x="867" y="475" type="curve" smooth="yes"/>
      <point x="935" y="518" type="line" smooth="yes"/>
      <point x="944" y="523"/>
      <point x="949" y="527"/>
      <point x="949" y="536" type="curve" smooth="yes"/>
      <point x="949" y="541"/>
      <point x="948" y="549"/>
      <point x="944" y="556" type="curve"/>
      <point x="944" y="556"/>
      <point x="783" y="824"/>
      <point x="744" y="900" type="curve" smooth="yes"/>
    </contour>
  </outline>
</glyph>
<glyph name="braceleft" format="1">
  <advance width="732"/>
  <unicode hex="007B"/>
  <outline>
    <contour>
      <point x="251" y="506" type="curve" smooth="yes"/>
      <point x="251" y="516"/>
      <point x="262" y="523"/>
      <point x="262" y="523" type="curve"/>
      <point x="332" y="577"/>
      <point x="371" y="611"/>
      <point x="371" y="713" type="curve" smooth="yes"/>
      <point x="371" y="982" type="line" smooth="yes"/>
      <point x="371" y="1043"/>
      <point x="385" y="1127"/>
      <point x="470" y="1161" type="curve" smooth="yes"/>
      <point x="480" y="1165"/>
      <point x="513" y="1178"/>
      <point x="530" y="1187" type="curve" smooth="yes"/>
      <point x="541" y="1192"/>
      <point x="547" y="1201"/>
      <point x="552" y="1209" type="curve" smooth="yes"/>
      <point x="564" y="1231"/>
      <point x="571" y="1243"/>
      <point x="581" y="1264" type="curve" smooth="yes"/>
      <point x="583" y="1267"/>
      <point x="586" y="1274"/>
      <point x="586" y="1279" type="curve" smooth="yes"/>
      <point x="586" y="1286"/>
      <point x="581" y="1291"/>
      <point x="571" y="1291" type="curve" smooth="yes"/>
      <point x="568" y="1291"/>
      <point x="561" y="1289"/>
      <point x="543" y="1283" type="curve" smooth="yes"/>
      <point x="511" y="1274"/>
      <point x="453" y="1257"/>
      <point x="419" y="1242" type="curve" smooth="yes"/>
      <point x="270" y="1183"/>
      <point x="228" y="1098"/>
      <point x="228" y="930" type="curve" smooth="yes"/>
      <point x="228" y="672" type="line" smooth="yes"/>
      <point x="228" y="613"/>
      <point x="228" y="568"/>
      <point x="149" y="532" type="curve" smooth="yes"/>
      <point x="135" y="525"/>
      <point x="129" y="516"/>
      <point x="129" y="506" type="curve" smooth="yes"/>
      <point x="129" y="493"/>
      <point x="135" y="487"/>
      <point x="149" y="480" type="curve" smooth="yes"/>
      <point x="228" y="445"/>
      <point x="228" y="398"/>
      <point x="228" y="339" type="curve" smooth="yes"/>
      <point x="228" y="55" type="line" smooth="yes"/>
      <point x="228" y="-113"/>
      <point x="272" y="-195"/>
      <point x="419" y="-256" type="curve" smooth="yes"/>
      <point x="450" y="-269"/>
      <point x="477" y="-279"/>
      <point x="489" y="-279" type="curve" smooth="yes"/>
      <point x="498" y="-279"/>
      <point x="508" y="-277"/>
      <point x="518" y="-274" type="curve" smooth="yes"/>
      <point x="543" y="-265"/>
      <point x="554" y="-260"/>
      <point x="571" y="-249" type="curve" smooth="yes"/>
      <point x="581" y="-244"/>
      <point x="586" y="-240"/>
      <point x="586" y="-236" type="curve" smooth="yes"/>
      <point x="586" y="-231"/>
      <point x="583" y="-228"/>
      <point x="575" y="-224" type="curve" smooth="yes"/>
      <point x="460" y="-171" type="line" smooth="yes"/>
      <point x="385" y="-135"/>
      <point x="371" y="-53"/>
      <point x="371" y="4" type="curve" smooth="yes"/>
      <point x="371" y="298" type="line" smooth="yes"/>
      <point x="371" y="400"/>
      <point x="332" y="434"/>
      <point x="262" y="487" type="curve"/>
      <point x="262" y="487"/>
      <point x="251" y="493"/>
    </contour>
  </outline>
</glyph>
<glyph name="verticalbar" format="1">
  <advance width="585"/>
  <unicode hex="007C"/>
  <outline>
    <contour>
      <point x="269" y="-53" type="line"/>
      <point x="255" y="-53"/>
      <point x="238" y="-46"/>
      <point x="238" y="-25" type="curve"/>
      <point x="238" y="1014" type="line"/>
      <point x="238" y="1036"/>
      <point x="255" y="1043"/>
      <point x="269" y="1043" type="curve" smooth="yes"/>
      <point x="315" y="1043" type="line" smooth="yes"/>
      <point x="330" y="1043"/>
      <point x="344" y="1034"/>
      <point x="344" y="1014" type="curve"/>
      <point x="344" y="-25" type="line"/>
      <point x="344" y="-43"/>
      <point x="332" y="-53"/>
      <point x="315" y="-53" type="curve" smooth="yes"/>
    </contour>
  </outline>
</glyph>
<glyph name="braceright" format="1">
  <advance width="732"/>
  <unicode hex="007D"/>
  <outline>
    <contour>
      <point x="484" y="506" type="curve" smooth="yes"/>
      <point x="484" y="494"/>
      <point x="473" y="487"/>
      <point x="473" y="487" type="curve"/>
      <point x="403" y="434"/>
      <point x="364" y="400"/>
      <point x="364" y="298" type="curve" smooth="yes"/>
      <point x="364" y="29" type="line" smooth="yes"/>
      <point x="364" y="-32"/>
      <point x="349" y="-116"/>
      <point x="265" y="-151" type="curve" smooth="yes"/>
      <point x="255" y="-154"/>
      <point x="222" y="-166"/>
      <point x="204" y="-176" type="curve" smooth="yes"/>
      <point x="193" y="-181"/>
      <point x="188" y="-190"/>
      <point x="183" y="-199" type="curve" smooth="yes"/>
      <point x="171" y="-221"/>
      <point x="163" y="-233"/>
      <point x="154" y="-253" type="curve" smooth="yes"/>
      <point x="152" y="-256"/>
      <point x="149" y="-263"/>
      <point x="149" y="-269" type="curve" smooth="yes"/>
      <point x="149" y="-276"/>
      <point x="154" y="-279"/>
      <point x="163" y="-279" type="curve" smooth="yes"/>
      <point x="166" y="-279"/>
      <point x="174" y="-277"/>
      <point x="192" y="-272" type="curve" smooth="yes"/>
      <point x="224" y="-263"/>
      <point x="282" y="-246"/>
      <point x="315" y="-231" type="curve" smooth="yes"/>
      <point x="464" y="-172"/>
      <point x="508" y="-88"/>
      <point x="508" y="81" type="curve" smooth="yes"/>
      <point x="508" y="339" type="line" smooth="yes"/>
      <point x="508" y="398"/>
      <point x="508" y="443"/>
      <point x="586" y="479" type="curve" smooth="yes"/>
      <point x="600" y="486"/>
      <point x="606" y="494"/>
      <point x="606" y="506" type="curve" smooth="yes"/>
      <point x="606" y="518"/>
      <point x="600" y="523"/>
      <point x="586" y="530" type="curve" smooth="yes"/>
      <point x="508" y="566"/>
      <point x="508" y="613"/>
      <point x="508" y="672" type="curve" smooth="yes"/>
      <point x="508" y="956" type="line" smooth="yes"/>
      <point x="508" y="1124"/>
      <point x="462" y="1206"/>
      <point x="315" y="1267" type="curve" smooth="yes"/>
      <point x="285" y="1279"/>
      <point x="258" y="1291"/>
      <point x="246" y="1291" type="curve" smooth="yes"/>
      <point x="236" y="1291"/>
      <point x="228" y="1289"/>
      <point x="217" y="1285" type="curve" smooth="yes"/>
      <point x="192" y="1276"/>
      <point x="181" y="1271"/>
      <point x="163" y="1260" type="curve" smooth="yes"/>
      <point x="154" y="1255"/>
      <point x="149" y="1251"/>
      <point x="149" y="1247" type="curve" smooth="yes"/>
      <point x="149" y="1242"/>
      <point x="152" y="1238"/>
      <point x="159" y="1235" type="curve" smooth="yes"/>
      <point x="274" y="1181" type="line" smooth="yes"/>
      <point x="349" y="1145"/>
      <point x="364" y="1065"/>
      <point x="364" y="1007" type="curve" smooth="yes"/>
      <point x="364" y="713" type="line" smooth="yes"/>
      <point x="364" y="611"/>
      <point x="403" y="577"/>
      <point x="473" y="523" type="curve"/>
      <point x="473" y="523"/>
      <point x="484" y="518"/>
    </contour>
  </outline>
</glyph>
<glyph name="sterling" format="1">
  <advance width="1018"/>
  <unicode hex="00A3"/>
  <outline>
    <contour>
      <point x="826" y="1344" type="curve" smooth="yes"/>
      <point x="835" y="1339"/>
      <point x="841" y="1332"/>
      <point x="841" y="1322" type="curve" smooth="yes"/>
      <point x="841" y="1320"/>
      <point x="838" y="1315"/>
      <point x="837" y="1306" type="curve" smooth="yes"/>
      <point x="831" y="1292"/>
      <point x="805" y="1255"/>
      <point x="756" y="1188" type="curve" smooth="yes"/>
      <point x="751" y="1181"/>
      <point x="742" y="1175"/>
      <point x="732" y="1175" type="curve" smooth="yes"/>
      <point x="724" y="1175"/>
      <point x="717" y="1178"/>
      <point x="708" y="1181" type="curve" smooth="yes"/>
      <point x="617" y="1221"/>
      <point x="539" y="1240"/>
      <point x="473" y="1240" type="curve" smooth="yes"/>
      <point x="436" y="1240"/>
      <point x="402" y="1221"/>
      <point x="380" y="1192" type="curve" smooth="yes"/>
      <point x="364" y="1170"/>
      <point x="355" y="1142"/>
      <point x="355" y="1104" type="curve" smooth="yes"/>
      <point x="355" y="1068"/>
      <point x="376" y="964"/>
      <point x="416" y="794" type="curve" smooth="yes"/>
      <point x="419" y="788"/>
      <point x="421" y="785"/>
      <point x="423" y="785" type="curve" smooth="yes"/>
      <point x="452" y="785"/>
      <point x="515" y="785"/>
      <point x="609" y="783" type="curve" smooth="yes"/>
      <point x="704" y="781"/>
      <point x="765" y="781"/>
      <point x="792" y="781" type="curve" smooth="yes"/>
      <point x="803" y="781"/>
      <point x="809" y="776"/>
      <point x="809" y="767" type="curve" smooth="yes"/>
      <point x="809" y="761"/>
      <point x="805" y="756"/>
      <point x="801" y="751" type="curve" smooth="yes"/>
      <point x="763" y="713"/>
      <point x="725" y="679"/>
      <point x="690" y="655" type="curve" smooth="yes"/>
      <point x="676" y="643"/>
      <point x="658" y="638"/>
      <point x="634" y="634" type="curve" smooth="yes"/>
      <point x="464" y="626" type="line" smooth="yes"/>
      <point x="459" y="626"/>
      <point x="455" y="624"/>
      <point x="455" y="620" type="curve" smooth="yes"/>
      <point x="473" y="550"/>
      <point x="484" y="489"/>
      <point x="484" y="441" type="curve" smooth="yes"/>
      <point x="484" y="410"/>
      <point x="479" y="376"/>
      <point x="464" y="339" type="curve" smooth="yes"/>
      <point x="436" y="269"/>
      <point x="414" y="221"/>
      <point x="400" y="190" type="curve"/>
      <point x="400" y="185"/>
      <point x="405" y="185"/>
      <point x="405" y="185" type="curve" smooth="yes"/>
      <point x="500" y="185"/>
      <point x="570" y="171"/>
      <point x="663" y="158" type="curve" smooth="yes"/>
      <point x="701" y="152"/>
      <point x="735" y="152"/>
      <point x="763" y="152" type="curve" smooth="yes"/>
      <point x="844" y="154"/>
      <point x="910" y="188"/>
      <point x="920" y="188" type="curve" smooth="yes"/>
      <point x="927" y="188"/>
      <point x="930" y="186"/>
      <point x="930" y="179" type="curve" smooth="yes"/>
      <point x="930" y="176"/>
      <point x="928" y="171"/>
      <point x="925" y="163" type="curve" smooth="yes"/>
      <point x="898" y="111"/>
      <point x="871" y="72"/>
      <point x="837" y="27" type="curve" smooth="yes"/>
      <point x="826" y="14"/>
      <point x="810" y="5"/>
      <point x="790" y="-2" type="curve" smooth="yes"/>
      <point x="739" y="-20"/>
      <point x="688" y="-29"/>
      <point x="641" y="-29" type="curve" smooth="yes"/>
      <point x="590" y="-29"/>
      <point x="525" y="-24"/>
      <point x="450" y="-9" type="curve" smooth="yes"/>
      <point x="357" y="7"/>
      <point x="284" y="16"/>
      <point x="228" y="16" type="curve" smooth="yes"/>
      <point x="195" y="16"/>
      <point x="159" y="11"/>
      <point x="127" y="11" type="curve" smooth="yes"/>
      <point x="116" y="11"/>
      <point x="111" y="16"/>
      <point x="111" y="27" type="curve" smooth="yes"/>
      <point x="111" y="43"/>
      <point x="137" y="79"/>
      <point x="171" y="140" type="curve" smooth="yes"/>
      <point x="181" y="158"/>
      <point x="197" y="172"/>
      <point x="214" y="181" type="curve" smooth="yes"/>
      <point x="255" y="207"/>
      <point x="284" y="229"/>
      <point x="303" y="255" type="curve" smooth="yes"/>
      <point x="321" y="277"/>
      <point x="330" y="312"/>
      <point x="330" y="355" type="curve" smooth="yes"/>
      <point x="330" y="376"/>
      <point x="326" y="405"/>
      <point x="321" y="438" type="curve" smooth="yes"/>
      <point x="312" y="496"/>
      <point x="299" y="554"/>
      <point x="284" y="611" type="curve" smooth="yes"/>
      <point x="282" y="619"/>
      <point x="277" y="622"/>
      <point x="270" y="622" type="curve"/>
      <point x="238" y="622"/>
      <point x="217" y="622"/>
      <point x="188" y="620" type="curve" smooth="yes"/>
      <point x="159" y="620"/>
      <point x="142" y="619"/>
      <point x="138" y="619" type="curve" smooth="yes"/>
      <point x="127" y="619"/>
      <point x="122" y="624"/>
      <point x="122" y="633" type="curve" smooth="yes"/>
      <point x="122" y="638"/>
      <point x="125" y="643"/>
      <point x="129" y="648" type="curve" smooth="yes"/>
      <point x="171" y="696"/>
      <point x="204" y="735"/>
      <point x="231" y="763" type="curve" smooth="yes"/>
      <point x="233" y="767"/>
      <point x="235" y="773"/>
      <point x="235" y="783" type="curve" smooth="yes"/>
      <point x="233" y="790"/>
      <point x="233" y="792"/>
      <point x="233" y="792" type="curve" smooth="yes"/>
      <point x="217" y="857" type="line" smooth="yes"/>
      <point x="208" y="896"/>
      <point x="202" y="928"/>
      <point x="202" y="951" type="curve" smooth="yes"/>
      <point x="202" y="1029"/>
      <point x="229" y="1103"/>
      <point x="282" y="1180" type="curve" smooth="yes"/>
      <point x="299" y="1204"/>
      <point x="330" y="1236"/>
      <point x="371" y="1272" type="curve" smooth="yes"/>
      <point x="410" y="1305"/>
      <point x="443" y="1330"/>
      <point x="470" y="1344" type="curve" smooth="yes"/>
      <point x="529" y="1378"/>
      <point x="585" y="1396"/>
      <point x="643" y="1396" type="curve" smooth="yes"/>
      <point x="715" y="1396"/>
      <point x="774" y="1376"/>
    </contour>
  </outline>
</glyph>
<glyph name="section" format="1">
  <advance width="874"/>
  <unicode hex="00A7"/>
  <outline>
    <contour>
      <point x="199" y="-104" type="curve" smooth="yes"/>
      <point x="195" y="-101"/>
      <point x="192" y="-97"/>
      <point x="188" y="-97" type="curve" smooth="yes"/>
      <point x="183" y="-97"/>
      <point x="179" y="-102"/>
      <point x="172" y="-115" type="curve" smooth="yes"/>
      <point x="154" y="-147"/>
      <point x="129" y="-195"/>
      <point x="122" y="-214" type="curve" smooth="yes"/>
      <point x="118" y="-222"/>
      <point x="116" y="-228"/>
      <point x="116" y="-233" type="curve" smooth="yes"/>
      <point x="116" y="-238"/>
      <point x="118" y="-242"/>
      <point x="127" y="-248" type="curve" smooth="yes"/>
      <point x="181" y="-284"/>
      <point x="258" y="-312"/>
      <point x="330" y="-312" type="curve" smooth="yes"/>
      <point x="453" y="-312"/>
      <point x="590" y="-202"/>
      <point x="665" y="-111" type="curve" smooth="yes"/>
      <point x="703" y="-65"/>
      <point x="717" y="0"/>
      <point x="717" y="53" type="curve" smooth="yes"/>
      <point x="717" y="142"/>
      <point x="660" y="192"/>
      <point x="585" y="222" type="curve"/>
      <point x="643" y="260"/>
      <point x="694" y="310"/>
      <point x="727" y="357" type="curve"/>
      <point x="765" y="398"/>
      <point x="785" y="462"/>
      <point x="785" y="515" type="curve" smooth="yes"/>
      <point x="785" y="617"/>
      <point x="708" y="665"/>
      <point x="624" y="694" type="curve" smooth="yes"/>
      <point x="549" y="720"/>
      <point x="473" y="747"/>
      <point x="398" y="778" type="curve" smooth="yes"/>
      <point x="353" y="795"/>
      <point x="299" y="837"/>
      <point x="299" y="893" type="curve" smooth="yes"/>
      <point x="299" y="1000"/>
      <point x="346" y="1068"/>
      <point x="455" y="1068" type="curve" smooth="yes"/>
      <point x="545" y="1068"/>
      <point x="604" y="1040"/>
      <point x="674" y="993" type="curve" smooth="yes"/>
      <point x="679" y="989"/>
      <point x="686" y="984"/>
      <point x="690" y="984" type="curve" smooth="yes"/>
      <point x="697" y="984"/>
      <point x="701" y="991"/>
      <point x="704" y="1000" type="curve" smooth="yes"/>
      <point x="717" y="1031"/>
      <point x="733" y="1081"/>
      <point x="740" y="1108" type="curve" smooth="yes"/>
      <point x="744" y="1122"/>
      <point x="744" y="1125"/>
      <point x="744" y="1127" type="curve" smooth="yes"/>
      <point x="744" y="1132"/>
      <point x="740" y="1136"/>
      <point x="732" y="1142" type="curve" smooth="yes"/>
      <point x="710" y="1152"/>
      <point x="614" y="1178"/>
      <point x="568" y="1178" type="curve" smooth="yes"/>
      <point x="525" y="1178"/>
      <point x="486" y="1170"/>
      <point x="446" y="1158" type="curve"/>
      <point x="313" y="1098"/>
      <point x="171" y="980"/>
      <point x="171" y="821" type="curve" smooth="yes"/>
      <point x="171" y="749"/>
      <point x="204" y="692"/>
      <point x="276" y="662" type="curve" smooth="yes"/>
      <point x="299" y="652" type="line"/>
      <point x="193" y="581"/>
      <point x="106" y="484"/>
      <point x="106" y="361" type="curve" smooth="yes"/>
      <point x="106" y="289"/>
      <point x="140" y="231"/>
      <point x="210" y="197" type="curve"/>
      <point x="301" y="163"/>
      <point x="405" y="138"/>
      <point x="491" y="91" type="curve"/>
      <point x="552" y="65"/>
      <point x="586" y="14"/>
      <point x="586" y="-50" type="curve" smooth="yes"/>
      <point x="586" y="-93"/>
      <point x="570" y="-144"/>
      <point x="529" y="-171" type="curve" smooth="yes"/>
      <point x="513" y="-183"/>
      <point x="468" y="-192"/>
      <point x="445" y="-192" type="curve" smooth="yes"/>
      <point x="355" y="-192"/>
      <point x="263" y="-169"/>
    </contour>
    <contour>
      <point x="557" y="570" type="line" smooth="yes"/>
      <point x="617" y="543"/>
      <point x="652" y="496"/>
      <point x="652" y="434" type="curve" smooth="yes"/>
      <point x="652" y="387"/>
      <point x="636" y="344"/>
      <point x="599" y="317" type="curve"/>
      <point x="575" y="306"/>
      <point x="530" y="291"/>
      <point x="511" y="291" type="curve" smooth="yes"/>
      <point x="464" y="291"/>
      <point x="409" y="306"/>
      <point x="364" y="321" type="curve" smooth="yes"/>
      <point x="333" y="332" type="line"/>
      <point x="289" y="351"/>
      <point x="233" y="387"/>
      <point x="233" y="446" type="curve" smooth="yes"/>
      <point x="233" y="552"/>
      <point x="279" y="619"/>
      <point x="390" y="619" type="curve" smooth="yes"/>
      <point x="419" y="619"/>
      <point x="446" y="617"/>
      <point x="473" y="609" type="curve"/>
    </contour>
  </outline>
</glyph>
<glyph name="degree" format="1">
  <advance width="522"/>
  <unicode hex="00B0"/>
  <outline>
    <contour>
      <point x="0" y="1012" type="curve"/>
      <point x="2" y="1093"/>
      <point x="36" y="1131"/>
      <point x="46" y="1151" type="curve" smooth="yes"/>
      <point x="74" y="1192"/>
      <point x="129" y="1235"/>
      <point x="190" y="1271" type="curve" smooth="yes"/>
      <point x="210" y="1283"/>
      <point x="238" y="1291"/>
      <point x="263" y="1291" type="curve" smooth="yes"/>
      <point x="382" y="1289"/>
      <point x="443" y="1181"/>
      <point x="445" y="1095" type="curve" smooth="yes"/>
      <point x="445" y="1014"/>
      <point x="421" y="941"/>
      <point x="376" y="884" type="curve"/>
      <point x="333" y="837"/>
      <point x="277" y="778"/>
      <point x="190" y="778" type="curve" smooth="yes"/>
      <point x="52" y="778"/>
      <point x="0" y="903"/>
    </contour>
    <contour>
      <point x="328" y="1011" type="curve" smooth="yes"/>
      <point x="328" y="1091"/>
      <point x="274" y="1170"/>
      <point x="192" y="1170" type="curve" smooth="yes"/>
      <point x="144" y="1170"/>
      <point x="118" y="1111"/>
      <point x="118" y="1045" type="curve" smooth="yes"/>
      <point x="118" y="973"/>
      <point x="161" y="907"/>
      <point x="221" y="907" type="curve" smooth="yes"/>
      <point x="296" y="907"/>
      <point x="328" y="939"/>
    </contour>
  </outline>
</glyph>
<glyph name="paragraph" format="1">
  <advance width="973"/>
  <unicode hex="00B6"/>
  <outline>
    <contour>
      <point x="893" y="1113" type="curve" smooth="yes"/>
      <point x="898" y="1118"/>
      <point x="901" y="1124"/>
      <point x="901" y="1127" type="curve" smooth="yes"/>
      <point x="901" y="1131"/>
      <point x="900" y="1136"/>
      <point x="889" y="1138" type="curve" smooth="yes"/>
      <point x="739" y="1163"/>
      <point x="627" y="1181"/>
      <point x="527" y="1181" type="curve" smooth="yes"/>
      <point x="432" y="1181"/>
      <point x="353" y="1132"/>
      <point x="272" y="1075" type="curve" smooth="yes"/>
      <point x="163" y="997"/>
      <point x="106" y="887"/>
      <point x="106" y="795" type="curve" smooth="yes"/>
      <point x="106" y="631"/>
      <point x="188" y="520"/>
      <point x="371" y="459" type="curve" smooth="yes"/>
      <point x="382" y="455"/>
      <point x="396" y="452"/>
      <point x="405" y="452" type="curve" smooth="yes"/>
      <point x="421" y="452"/>
      <point x="428" y="459"/>
      <point x="439" y="472" type="curve" smooth="yes"/>
      <point x="462" y="498"/>
      <point x="477" y="516"/>
      <point x="513" y="566" type="curve" smooth="yes"/>
      <point x="522" y="579"/>
      <point x="525" y="585"/>
      <point x="525" y="588" type="curve" smooth="yes"/>
      <point x="525" y="600"/>
      <point x="501" y="600"/>
      <point x="482" y="600" type="curve" smooth="yes"/>
      <point x="368" y="600"/>
      <point x="260" y="690"/>
      <point x="260" y="816" type="curve" smooth="yes"/>
      <point x="260" y="963"/>
      <point x="339" y="1072"/>
      <point x="438" y="1072" type="curve" smooth="yes"/>
      <point x="484" y="1072"/>
      <point x="529" y="1068"/>
      <point x="570" y="1059" type="curve" smooth="yes"/>
      <point x="579" y="1057"/>
      <point x="585" y="1050"/>
      <point x="585" y="1045" type="curve" smooth="yes"/>
      <point x="586" y="964"/>
      <point x="586" y="874"/>
      <point x="586" y="780" type="curve" smooth="yes"/>
      <point x="586" y="214" type="line" smooth="yes"/>
      <point x="586" y="82"/>
      <point x="586" y="-36"/>
      <point x="583" y="-131" type="curve" smooth="yes"/>
      <point x="581" y="-200"/>
      <point x="532" y="-342"/>
      <point x="532" y="-351" type="curve" smooth="yes"/>
      <point x="532" y="-361"/>
      <point x="537" y="-368"/>
      <point x="547" y="-368" type="curve" smooth="yes"/>
      <point x="552" y="-368"/>
      <point x="559" y="-366"/>
      <point x="564" y="-361" type="curve" smooth="yes"/>
      <point x="617" y="-310"/>
      <point x="633" y="-287"/>
      <point x="658" y="-251" type="curve" smooth="yes"/>
      <point x="683" y="-215"/>
      <point x="683" y="-195"/>
      <point x="683" y="-165" type="curve" smooth="yes"/>
      <point x="683" y="-158"/>
      <point x="679" y="-122"/>
      <point x="679" y="-84" type="curve" smooth="yes"/>
      <point x="679" y="1033" type="line" smooth="yes"/>
      <point x="679" y="1040"/>
      <point x="683" y="1040"/>
      <point x="688" y="1040" type="curve" smooth="yes"/>
      <point x="703" y="1038"/>
      <point x="739" y="1034"/>
      <point x="746" y="1031" type="curve" smooth="yes"/>
      <point x="749" y="1029"/>
      <point x="753" y="1025"/>
      <point x="753" y="1014" type="curve" smooth="yes"/>
      <point x="753" y="-39" type="line" smooth="yes"/>
      <point x="753" y="-101"/>
      <point x="749" y="-131"/>
      <point x="749" y="-161" type="curve" smooth="yes"/>
      <point x="749" y="-171"/>
      <point x="754" y="-174"/>
      <point x="760" y="-174" type="curve" smooth="yes"/>
      <point x="765" y="-174"/>
      <point x="773" y="-169"/>
      <point x="780" y="-161" type="curve" smooth="yes"/>
      <point x="797" y="-144"/>
      <point x="819" y="-115"/>
      <point x="838" y="-86" type="curve" smooth="yes"/>
      <point x="846" y="-77"/>
      <point x="848" y="-61"/>
      <point x="848" y="-46" type="curve" smooth="yes"/>
      <point x="848" y="-32"/>
      <point x="846" y="46"/>
      <point x="846" y="60" type="curve" smooth="yes"/>
      <point x="846" y="985" type="line" smooth="yes"/>
      <point x="846" y="1055"/>
      <point x="876" y="1096"/>
    </contour>
  </outline>
</glyph>
<glyph name="guillemotright" format="1">
  <advance width="732"/>
  <unicode hex="00BB"/>
  <outline>
    <contour>
      <point x="543" y="339" type="curve" smooth="yes"/>
      <point x="571" y="375"/>
      <point x="613" y="439"/>
      <point x="638" y="484" type="curve" smooth="yes"/>
      <point x="641" y="491"/>
      <point x="645" y="501"/>
      <point x="645" y="511" type="curve" smooth="yes"/>
      <point x="645" y="522"/>
      <point x="641" y="532"/>
      <point x="629" y="552" type="curve" smooth="yes"/>
      <point x="602" y="597"/>
      <point x="541" y="665"/>
      <point x="493" y="706" type="curve" smooth="yes"/>
      <point x="484" y="713"/>
      <point x="479" y="715"/>
      <point x="475" y="715" type="curve" smooth="yes"/>
      <point x="470" y="715"/>
      <point x="462" y="711"/>
      <point x="457" y="706" type="curve" smooth="yes"/>
      <point x="426" y="672"/>
      <point x="403" y="634"/>
      <point x="390" y="613" type="curve"/>
      <point x="390" y="613"/>
      <point x="380" y="593"/>
      <point x="380" y="585" type="curve" smooth="yes"/>
      <point x="380" y="579"/>
      <point x="382" y="570"/>
      <point x="387" y="564" type="curve" smooth="yes"/>
      <point x="468" y="482" type="line" smooth="yes"/>
      <point x="473" y="477"/>
      <point x="477" y="466"/>
      <point x="477" y="460" type="curve" smooth="yes"/>
      <point x="477" y="455"/>
      <point x="477" y="448"/>
      <point x="472" y="439" type="curve" smooth="yes"/>
      <point x="450" y="396"/>
      <point x="421" y="344"/>
      <point x="400" y="299" type="curve" smooth="yes"/>
      <point x="396" y="292"/>
      <point x="395" y="285"/>
      <point x="395" y="279" type="curve" smooth="yes"/>
      <point x="395" y="272"/>
      <point x="402" y="267"/>
      <point x="410" y="267" type="curve" smooth="yes"/>
      <point x="414" y="267"/>
      <point x="421" y="269"/>
      <point x="431" y="272" type="curve" smooth="yes"/>
      <point x="448" y="282"/>
      <point x="489" y="299"/>
      <point x="498" y="305" type="curve" smooth="yes"/>
      <point x="511" y="312"/>
      <point x="527" y="317"/>
    </contour>
    <contour>
      <point x="242" y="339" type="curve" smooth="yes"/>
      <point x="270" y="375"/>
      <point x="312" y="439"/>
      <point x="337" y="484" type="curve" smooth="yes"/>
      <point x="340" y="491"/>
      <point x="344" y="501"/>
      <point x="344" y="511" type="curve" smooth="yes"/>
      <point x="344" y="522"/>
      <point x="340" y="532"/>
      <point x="328" y="552" type="curve" smooth="yes"/>
      <point x="301" y="597"/>
      <point x="240" y="665"/>
      <point x="192" y="706" type="curve" smooth="yes"/>
      <point x="183" y="713"/>
      <point x="178" y="715"/>
      <point x="174" y="715" type="curve" smooth="yes"/>
      <point x="169" y="715"/>
      <point x="161" y="711"/>
      <point x="156" y="706" type="curve" smooth="yes"/>
      <point x="125" y="672"/>
      <point x="102" y="634"/>
      <point x="89" y="613" type="curve"/>
      <point x="89" y="613"/>
      <point x="79" y="593"/>
      <point x="79" y="585" type="curve" smooth="yes"/>
      <point x="79" y="579"/>
      <point x="81" y="570"/>
      <point x="86" y="564" type="curve" smooth="yes"/>
      <point x="166" y="482" type="line" smooth="yes"/>
      <point x="172" y="477"/>
      <point x="176" y="466"/>
      <point x="176" y="460" type="curve" smooth="yes"/>
      <point x="176" y="455"/>
      <point x="176" y="448"/>
      <point x="171" y="439" type="curve" smooth="yes"/>
      <point x="149" y="396"/>
      <point x="120" y="344"/>
      <point x="99" y="299" type="curve" smooth="yes"/>
      <point x="95" y="292"/>
      <point x="93" y="285"/>
      <point x="93" y="279" type="curve" smooth="yes"/>
      <point x="93" y="272"/>
      <point x="101" y="267"/>
      <point x="109" y="267" type="curve" smooth="yes"/>
      <point x="113" y="267"/>
      <point x="120" y="269"/>
      <point x="129" y="272" type="curve" smooth="yes"/>
      <point x="147" y="282"/>
      <point x="188" y="299"/>
      <point x="197" y="305" type="curve" smooth="yes"/>
      <point x="210" y="312"/>
      <point x="226" y="317"/>
    </contour>
  </outline>
</glyph>
<glyph name="multiply" format="1">
  <advance width="1018"/>
  <unicode hex="00D7"/>
  <outline>
    <contour>
      <point x="794" y="186" type="curve"/>
      <point x="801" y="178"/>
      <point x="809" y="176"/>
      <point x="814" y="176" type="curve" smooth="yes"/>
      <point x="821" y="176"/>
      <point x="828" y="179"/>
      <point x="835" y="186" type="curve" smooth="yes"/>
      <point x="889" y="240" type="line" smooth="yes"/>
      <point x="896" y="246"/>
      <point x="900" y="253"/>
      <point x="900" y="260" type="curve" smooth="yes"/>
      <point x="900" y="265"/>
      <point x="896" y="272"/>
      <point x="889" y="279" type="curve" smooth="yes"/>
      <point x="889" y="279"/>
      <point x="690" y="470"/>
      <point x="600" y="559" type="curve"/>
      <point x="669" y="626"/>
      <point x="882" y="838"/>
      <point x="882" y="838" type="curve"/>
      <point x="889" y="846"/>
      <point x="893" y="853"/>
      <point x="893" y="858" type="curve" smooth="yes"/>
      <point x="893" y="865"/>
      <point x="889" y="871"/>
      <point x="884" y="879" type="curve" smooth="yes"/>
      <point x="828" y="932" type="line" smooth="yes"/>
      <point x="819" y="941"/>
      <point x="812" y="944"/>
      <point x="807" y="944" type="curve" smooth="yes"/>
      <point x="801" y="944"/>
      <point x="795" y="941"/>
      <point x="790" y="935" type="curve" smooth="yes"/>
      <point x="790" y="935"/>
      <point x="592" y="724"/>
      <point x="513" y="645" type="curve"/>
      <point x="443" y="715"/>
      <point x="236" y="930"/>
      <point x="236" y="930" type="curve"/>
      <point x="229" y="937"/>
      <point x="222" y="941"/>
      <point x="217" y="941" type="curve" smooth="yes"/>
      <point x="210" y="941"/>
      <point x="202" y="937"/>
      <point x="197" y="930" type="curve" smooth="yes"/>
      <point x="144" y="876" type="line" smooth="yes"/>
      <point x="135" y="867"/>
      <point x="133" y="860"/>
      <point x="133" y="855" type="curve" smooth="yes"/>
      <point x="133" y="848"/>
      <point x="137" y="843"/>
      <point x="140" y="838" type="curve" smooth="yes"/>
      <point x="140" y="838"/>
      <point x="346" y="638"/>
      <point x="426" y="559" type="curve"/>
      <point x="335" y="470"/>
      <point x="129" y="274"/>
      <point x="129" y="274" type="curve"/>
      <point x="122" y="267"/>
      <point x="118" y="260"/>
      <point x="118" y="255" type="curve" smooth="yes"/>
      <point x="118" y="248"/>
      <point x="122" y="242"/>
      <point x="129" y="235" type="curve" smooth="yes"/>
      <point x="183" y="179" type="line" smooth="yes"/>
      <point x="190" y="174"/>
      <point x="195" y="171"/>
      <point x="202" y="171" type="curve" smooth="yes"/>
      <point x="208" y="171"/>
      <point x="215" y="174"/>
      <point x="222" y="181" type="curve" smooth="yes"/>
      <point x="222" y="181"/>
      <point x="426" y="382"/>
      <point x="513" y="473" type="curve"/>
      <point x="604" y="378"/>
      <point x="794" y="186"/>
    </contour>
  </outline>
</glyph>
<glyph name="uni059A" format="1">
  <advance width="0"/>
  <unicode hex="059A"/>
  <outline>
    <contour>
      <point x="95" y="-279" type="curve" smooth="yes"/>
      <point x="166" y="-238"/>
      <point x="323" y="-151"/>
      <point x="387" y="-123" type="curve" smooth="yes"/>
      <point x="395" y="-120"/>
      <point x="400" y="-118"/>
      <point x="405" y="-118" type="curve" smooth="yes"/>
      <point x="410" y="-118"/>
      <point x="416" y="-122"/>
      <point x="419" y="-127" type="curve"/>
      <point x="443" y="-171" type="line" smooth="yes"/>
      <point x="445" y="-174"/>
      <point x="446" y="-178"/>
      <point x="446" y="-181" type="curve" smooth="yes"/>
      <point x="446" y="-188"/>
      <point x="441" y="-195"/>
      <point x="428" y="-204" type="curve" smooth="yes"/>
      <point x="361" y="-249"/>
      <point x="263" y="-296"/>
      <point x="219" y="-326" type="curve"/>
      <point x="260" y="-351"/>
      <point x="364" y="-405"/>
      <point x="432" y="-448" type="curve" smooth="yes"/>
      <point x="445" y="-457"/>
      <point x="450" y="-464"/>
      <point x="450" y="-472" type="curve" smooth="yes"/>
      <point x="450" y="-475"/>
      <point x="448" y="-479"/>
      <point x="446" y="-482" type="curve"/>
      <point x="421" y="-525" type="line"/>
      <point x="417" y="-530"/>
      <point x="412" y="-534"/>
      <point x="407" y="-534" type="curve" smooth="yes"/>
      <point x="402" y="-534"/>
      <point x="396" y="-532"/>
      <point x="389" y="-529" type="curve" smooth="yes"/>
      <point x="325" y="-501"/>
      <point x="161" y="-410"/>
      <point x="95" y="-373" type="curve" smooth="yes"/>
      <point x="84" y="-368"/>
      <point x="79" y="-359"/>
      <point x="79" y="-349" type="curve" smooth="yes"/>
      <point x="79" y="-305" type="line" smooth="yes"/>
      <point x="79" y="-296"/>
      <point x="84" y="-285"/>
    </contour>
  </outline>
</glyph>
<glyph name="uni059B" format="1">
  <advance width="0"/>
  <unicode hex="059B"/>
  <outline>
    <contour>
      <point x="235" y="-226" type="curve" smooth="yes"/>
      <point x="235" y="-267"/>
      <point x="202" y="-299"/>
      <point x="163" y="-299" type="curve" smooth="yes"/>
      <point x="122" y="-299"/>
      <point x="89" y="-267"/>
      <point x="89" y="-226" type="curve" smooth="yes"/>
      <point x="89" y="-186"/>
      <point x="122" y="-152"/>
      <point x="163" y="-152" type="curve" smooth="yes"/>
      <point x="202" y="-152"/>
      <point x="235" y="-186"/>
    </contour>
    <contour>
      <point x="235" y="-523" type="curve" smooth="yes"/>
      <point x="395" y="-460"/>
      <point x="426" y="-325"/>
      <point x="426" y="-158" type="curve" smooth="yes"/>
      <point x="426" y="-137"/>
      <point x="416" y="-131"/>
      <point x="400" y="-131" type="curve" smooth="yes"/>
      <point x="357" y="-131" type="line" smooth="yes"/>
      <point x="340" y="-131"/>
      <point x="332" y="-137"/>
      <point x="332" y="-158" type="curve" smooth="yes"/>
      <point x="332" y="-306"/>
      <point x="299" y="-382"/>
      <point x="186" y="-432" type="curve" smooth="yes"/>
      <point x="176" y="-438"/>
      <point x="171" y="-443"/>
      <point x="171" y="-450" type="curve" smooth="yes"/>
      <point x="171" y="-455"/>
      <point x="172" y="-464"/>
      <point x="176" y="-470" type="curve"/>
      <point x="195" y="-515" type="line"/>
      <point x="200" y="-523"/>
      <point x="208" y="-529"/>
      <point x="217" y="-529" type="curve" smooth="yes"/>
      <point x="222" y="-529"/>
      <point x="228" y="-527"/>
    </contour>
  </outline>
</glyph>
<glyph name="uni05AF" format="1">
  <advance width="0"/>
  <unicode hex="05AF"/>
  <outline>
    <contour>
      <point x="222" y="1441" type="curve" smooth="yes"/>
      <point x="222" y="1334"/>
      <point x="306" y="1249"/>
      <point x="414" y="1249" type="curve" smooth="yes"/>
      <point x="522" y="1249"/>
      <point x="607" y="1334"/>
      <point x="607" y="1441" type="curve" smooth="yes"/>
      <point x="607" y="1548"/>
      <point x="522" y="1635"/>
      <point x="414" y="1635" type="curve" smooth="yes"/>
      <point x="306" y="1635"/>
      <point x="222" y="1548"/>
    </contour>
    <contour>
      <point x="313" y="1441" type="curve" smooth="yes"/>
      <point x="313" y="1496"/>
      <point x="359" y="1543"/>
      <point x="414" y="1543" type="curve" smooth="yes"/>
      <point x="470" y="1543"/>
      <point x="516" y="1496"/>
      <point x="516" y="1441" type="curve" smooth="yes"/>
      <point x="516" y="1385"/>
      <point x="470" y="1341"/>
      <point x="414" y="1341" type="curve" smooth="yes"/>
      <point x="359" y="1341"/>
      <point x="313" y="1385"/>
    </contour>
  </outline>
</glyph>
<glyph name="gimelhebrew" format="1">
  <advance width="730"/>
  <unicode hex="05D2"/>
  <outline>
    <contour>
      <point x="133" y="144" type="curve" smooth="yes"/>
      <point x="140" y="158"/>
      <point x="144" y="156"/>
      <point x="151" y="159" type="curve" smooth="yes"/>
      <point x="156" y="163"/>
      <point x="228" y="183"/>
      <point x="279" y="224" type="curve" smooth="yes"/>
      <point x="346" y="277"/>
      <point x="398" y="337"/>
      <point x="432" y="390" type="curve" smooth="yes"/>
      <point x="438" y="400"/>
      <point x="439" y="407"/>
      <point x="439" y="417" type="curve" smooth="yes"/>
      <point x="439" y="424"/>
      <point x="439" y="436"/>
      <point x="438" y="446" type="curve" smooth="yes"/>
      <point x="428" y="491"/>
      <point x="398" y="643"/>
      <point x="382" y="684" type="curve" smooth="yes"/>
      <point x="368" y="720"/>
      <point x="357" y="740"/>
      <point x="325" y="769" type="curve" smooth="yes"/>
      <point x="276" y="812"/>
      <point x="178" y="864"/>
      <point x="99" y="900" type="curve" smooth="yes"/>
      <point x="88" y="905"/>
      <point x="81" y="910"/>
      <point x="81" y="921" type="curve" smooth="yes"/>
      <point x="81" y="928"/>
      <point x="84" y="934"/>
      <point x="95" y="949" type="curve" smooth="yes"/>
      <point x="122" y="987"/>
      <point x="159" y="1043"/>
      <point x="179" y="1067" type="curve" smooth="yes"/>
      <point x="185" y="1074"/>
      <point x="192" y="1081"/>
      <point x="197" y="1081" type="curve" smooth="yes"/>
      <point x="202" y="1081"/>
      <point x="214" y="1075"/>
      <point x="226" y="1068" type="curve" smooth="yes"/>
      <point x="287" y="1033"/>
      <point x="385" y="978"/>
      <point x="443" y="925" type="curve" smooth="yes"/>
      <point x="493" y="876"/>
      <point x="522" y="801"/>
      <point x="530" y="733" type="curve" smooth="yes"/>
      <point x="557" y="525"/>
      <point x="579" y="366"/>
      <point x="602" y="178" type="curve" smooth="yes"/>
      <point x="604" y="163"/>
      <point x="606" y="144"/>
      <point x="606" y="137" type="curve" smooth="yes"/>
      <point x="606" y="127"/>
      <point x="606" y="120"/>
      <point x="602" y="108" type="curve" smooth="yes"/>
      <point x="593" y="70"/>
      <point x="563" y="-9"/>
      <point x="545" y="-39" type="curve" smooth="yes"/>
      <point x="543" y="-43"/>
      <point x="537" y="-46"/>
      <point x="532" y="-46" type="curve" smooth="yes"/>
      <point x="529" y="-46"/>
      <point x="523" y="-45"/>
      <point x="520" y="-39" type="curve" smooth="yes"/>
      <point x="501" y="-11"/>
      <point x="472" y="235"/>
      <point x="464" y="274" type="curve" smooth="yes"/>
      <point x="464" y="277"/>
      <point x="460" y="282"/>
      <point x="457" y="282" type="curve" smooth="yes"/>
      <point x="453" y="282"/>
      <point x="450" y="277"/>
      <point x="445" y="269" type="curve" smooth="yes"/>
      <point x="407" y="193"/>
      <point x="357" y="120"/>
      <point x="285" y="65" type="curve" smooth="yes"/>
      <point x="236" y="27"/>
      <point x="133" y="-25"/>
      <point x="86" y="-25" type="curve" smooth="yes"/>
      <point x="79" y="-25"/>
      <point x="74" y="-22"/>
      <point x="74" y="-14" type="curve" smooth="yes"/>
      <point x="74" y="-5"/>
      <point x="125" y="129"/>
    </contour>
  </outline>
</glyph>
<glyph name="zayinhebrew" format="1">
  <advance width="730"/>
  <unicode hex="05D6"/>
  <outline>
    <contour>
      <point x="231" y="450" type="curve" smooth="yes"/>
      <point x="215" y="489"/>
      <point x="210" y="532"/>
      <point x="210" y="561" type="curve" smooth="yes"/>
      <point x="210" y="604"/>
      <point x="215" y="670"/>
      <point x="244" y="751" type="curve" smooth="yes"/>
      <point x="256" y="785"/>
      <point x="269" y="810"/>
      <point x="269" y="826" type="curve" smooth="yes"/>
      <point x="269" y="835"/>
      <point x="263" y="843"/>
      <point x="255" y="848" type="curve" smooth="yes"/>
      <point x="122" y="916" type="line" smooth="yes"/>
      <point x="111" y="921"/>
      <point x="104" y="927"/>
      <point x="104" y="934" type="curve" smooth="yes"/>
      <point x="104" y="939"/>
      <point x="108" y="948"/>
      <point x="111" y="954" type="curve" smooth="yes"/>
      <point x="144" y="1002"/>
      <point x="172" y="1040"/>
      <point x="195" y="1068" type="curve" smooth="yes"/>
      <point x="202" y="1077"/>
      <point x="208" y="1081"/>
      <point x="215" y="1081" type="curve" smooth="yes"/>
      <point x="221" y="1081"/>
      <point x="224" y="1079"/>
      <point x="231" y="1075" type="curve" smooth="yes"/>
      <point x="339" y="1021"/>
      <point x="539" y="916"/>
      <point x="629" y="826" type="curve" smooth="yes"/>
      <point x="631" y="824"/>
      <point x="634" y="819"/>
      <point x="634" y="810" type="curve" smooth="yes"/>
      <point x="634" y="805"/>
      <point x="633" y="801"/>
      <point x="631" y="794" type="curve" smooth="yes"/>
      <point x="617" y="751"/>
      <point x="597" y="699"/>
      <point x="583" y="672" type="curve" smooth="yes"/>
      <point x="579" y="663"/>
      <point x="571" y="662"/>
      <point x="564" y="662" type="curve" smooth="yes"/>
      <point x="559" y="662"/>
      <point x="552" y="663"/>
      <point x="550" y="665" type="curve" smooth="yes"/>
      <point x="522" y="681"/>
      <point x="470" y="735"/>
      <point x="390" y="735" type="curve" smooth="yes"/>
      <point x="337" y="735"/>
      <point x="315" y="713"/>
      <point x="315" y="663" type="curve" smooth="yes"/>
      <point x="315" y="641"/>
      <point x="325" y="595"/>
      <point x="347" y="537" type="curve" smooth="yes"/>
      <point x="400" y="405"/>
      <point x="480" y="282"/>
      <point x="541" y="159" type="curve" smooth="yes"/>
      <point x="550" y="142"/>
      <point x="552" y="133"/>
      <point x="552" y="125" type="curve" smooth="yes"/>
      <point x="552" y="118"/>
      <point x="550" y="106"/>
      <point x="547" y="89" type="curve" smooth="yes"/>
      <point x="537" y="50"/>
      <point x="527" y="4"/>
      <point x="511" y="-31" type="curve" smooth="yes"/>
      <point x="506" y="-41"/>
      <point x="498" y="-45"/>
      <point x="493" y="-45" type="curve" smooth="yes"/>
      <point x="486" y="-45"/>
      <point x="480" y="-39"/>
      <point x="473" y="-27" type="curve" smooth="yes"/>
      <point x="390" y="118"/>
      <point x="294" y="298"/>
    </contour>
  </outline>
</glyph>
<glyph name="finalkafhebrew" format="1">
  <advance width="1016"/>
  <unicode hex="05DA"/>
  <outline>
    <contour>
      <point x="585" y="776" type="curve" smooth="yes"/>
      <point x="581" y="805"/>
      <point x="571" y="821"/>
      <point x="536" y="821" type="curve" smooth="yes"/>
      <point x="127" y="821" type="line" smooth="yes"/>
      <point x="104" y="821"/>
      <point x="81" y="831"/>
      <point x="81" y="851" type="curve" smooth="yes"/>
      <point x="81" y="869"/>
      <point x="190" y="1041"/>
      <point x="212" y="1065" type="curve" smooth="yes"/>
      <point x="219" y="1074"/>
      <point x="228" y="1081"/>
      <point x="235" y="1081" type="curve" smooth="yes"/>
      <point x="248" y="1081"/>
      <point x="255" y="1068"/>
      <point x="260" y="1048" type="curve" smooth="yes"/>
      <point x="270" y="1005"/>
      <point x="279" y="991"/>
      <point x="328" y="991" type="curve" smooth="yes"/>
      <point x="867" y="991" type="line" smooth="yes"/>
      <point x="891" y="991"/>
      <point x="903" y="991"/>
      <point x="903" y="978" type="curve" smooth="yes"/>
      <point x="903" y="977"/>
      <point x="901" y="970"/>
      <point x="900" y="964" type="curve" smooth="yes"/>
      <point x="887" y="927"/>
      <point x="867" y="880"/>
      <point x="846" y="841" type="curve" smooth="yes"/>
      <point x="837" y="824"/>
      <point x="830" y="824"/>
      <point x="819" y="821" type="curve" smooth="yes"/>
      <point x="781" y="809"/>
      <point x="740" y="807"/>
      <point x="740" y="751" type="curve" smooth="yes"/>
      <point x="740" y="697"/>
      <point x="740" y="541"/>
      <point x="747" y="385" type="curve" smooth="yes"/>
      <point x="754" y="224"/>
      <point x="760" y="65"/>
      <point x="760" y="-93" type="curve" smooth="yes"/>
      <point x="760" y="-137"/>
      <point x="758" y="-179"/>
      <point x="758" y="-222" type="curve" smooth="yes"/>
      <point x="758" y="-249"/>
      <point x="756" y="-260"/>
      <point x="747" y="-279" type="curve" smooth="yes"/>
      <point x="737" y="-303"/>
      <point x="692" y="-382"/>
      <point x="669" y="-403" type="curve" smooth="yes"/>
      <point x="663" y="-409"/>
      <point x="660" y="-410"/>
      <point x="655" y="-410" type="curve" smooth="yes"/>
      <point x="645" y="-410"/>
      <point x="636" y="-400"/>
      <point x="636" y="-387" type="curve" smooth="yes"/>
      <point x="629" y="-228"/>
      <point x="609" y="552"/>
    </contour>
  </outline>
</glyph>
<glyph name="memhebrew" format="1">
  <advance width="1301"/>
  <unicode hex="05DE"/>
  <outline>
    <contour>
      <point x="285" y="523" type="curve" smooth="yes"/>
      <point x="285" y="592"/>
      <point x="263" y="688"/>
      <point x="224" y="758" type="curve" smooth="yes"/>
      <point x="190" y="819"/>
      <point x="142" y="867"/>
      <point x="125" y="891" type="curve" smooth="yes"/>
      <point x="122" y="896"/>
      <point x="118" y="900"/>
      <point x="118" y="907" type="curve" smooth="yes"/>
      <point x="118" y="910"/>
      <point x="122" y="918"/>
      <point x="125" y="923" type="curve" smooth="yes"/>
      <point x="152" y="966"/>
      <point x="195" y="1027"/>
      <point x="244" y="1075" type="curve" smooth="yes"/>
      <point x="248" y="1079"/>
      <point x="253" y="1081"/>
      <point x="256" y="1081" type="curve" smooth="yes"/>
      <point x="260" y="1081"/>
      <point x="265" y="1077"/>
      <point x="267" y="1075" type="curve" smooth="yes"/>
      <point x="353" y="978"/>
      <point x="426" y="803"/>
      <point x="426" y="670" type="curve" smooth="yes"/>
      <point x="426" y="665"/>
      <point x="428" y="663"/>
      <point x="431" y="663" type="curve" smooth="yes"/>
      <point x="432" y="663"/>
      <point x="434" y="663"/>
      <point x="436" y="667" type="curve" smooth="yes"/>
      <point x="508" y="828"/>
      <point x="622" y="1021"/>
      <point x="814" y="1021" type="curve" smooth="yes"/>
      <point x="975" y="1021"/>
      <point x="1079" y="882"/>
      <point x="1120" y="744" type="curve" smooth="yes"/>
      <point x="1151" y="643"/>
      <point x="1166" y="473"/>
      <point x="1166" y="369" type="curve" smooth="yes"/>
      <point x="1166" y="369"/>
      <point x="1166" y="287"/>
      <point x="1154" y="235" type="curve" smooth="yes"/>
      <point x="1142" y="174"/>
      <point x="1088" y="65"/>
      <point x="1065" y="31" type="curve" smooth="yes"/>
      <point x="1050" y="9"/>
      <point x="1041" y="0"/>
      <point x="1018" y="0" type="curve"/>
      <point x="480" y="0" type="line"/>
      <point x="462" y="0"/>
      <point x="455" y="7"/>
      <point x="455" y="16" type="curve" smooth="yes"/>
      <point x="455" y="20"/>
      <point x="455" y="24"/>
      <point x="459" y="29" type="curve" smooth="yes"/>
      <point x="468" y="45"/>
      <point x="539" y="138"/>
      <point x="549" y="147" type="curve" smooth="yes"/>
      <point x="557" y="156"/>
      <point x="564" y="169"/>
      <point x="590" y="169" type="curve"/>
      <point x="1016" y="169" type="line"/>
      <point x="1031" y="169"/>
      <point x="1050" y="169"/>
      <point x="1050" y="202" type="curve" smooth="yes"/>
      <point x="1050" y="279"/>
      <point x="1033" y="549"/>
      <point x="975" y="684" type="curve" smooth="yes"/>
      <point x="939" y="771"/>
      <point x="850" y="843"/>
      <point x="746" y="843" type="curve" smooth="yes"/>
      <point x="614" y="843"/>
      <point x="509" y="711"/>
      <point x="460" y="599" type="curve" smooth="yes"/>
      <point x="450" y="571"/>
      <point x="410" y="439"/>
      <point x="398" y="393" type="curve" smooth="yes"/>
      <point x="385" y="346"/>
      <point x="342" y="195"/>
      <point x="321" y="142" type="curve" smooth="yes"/>
      <point x="315" y="127"/>
      <point x="308" y="115"/>
      <point x="303" y="108" type="curve" smooth="yes"/>
      <point x="289" y="89"/>
      <point x="226" y="0"/>
      <point x="179" y="-41" type="curve" smooth="yes"/>
      <point x="176" y="-45"/>
      <point x="169" y="-46"/>
      <point x="165" y="-46" type="curve" smooth="yes"/>
      <point x="159" y="-46"/>
      <point x="154" y="-43"/>
      <point x="154" y="-29" type="curve" smooth="yes"/>
      <point x="154" y="18"/>
      <point x="285" y="313"/>
    </contour>
  </outline>
</glyph>
<glyph name="pehebrew" format="1">
  <advance width="1016"/>
  <unicode hex="05E4"/>
  <outline>
    <contour>
      <point x="82" y="39" type="curve" smooth="yes"/>
      <point x="102" y="72"/>
      <point x="131" y="115"/>
      <point x="159" y="154" type="curve" smooth="yes"/>
      <point x="169" y="165"/>
      <point x="176" y="171"/>
      <point x="190" y="171" type="curve"/>
      <point x="722" y="171" type="line" smooth="yes"/>
      <point x="737" y="171"/>
      <point x="758" y="181"/>
      <point x="758" y="202" type="curve" smooth="yes"/>
      <point x="756" y="279"/>
      <point x="749" y="511"/>
      <point x="732" y="599" type="curve" smooth="yes"/>
      <point x="724" y="634"/>
      <point x="713" y="688"/>
      <point x="665" y="740" type="curve" smooth="yes"/>
      <point x="619" y="790"/>
      <point x="479" y="850"/>
      <point x="355" y="896" type="curve" smooth="yes"/>
      <point x="346" y="900"/>
      <point x="339" y="900"/>
      <point x="333" y="900" type="curve" smooth="yes"/>
      <point x="325" y="900"/>
      <point x="315" y="896"/>
      <point x="308" y="887" type="curve" smooth="yes"/>
      <point x="270" y="838"/>
      <point x="249" y="792"/>
      <point x="249" y="724" type="curve" smooth="yes"/>
      <point x="249" y="627"/>
      <point x="335" y="579"/>
      <point x="416" y="550" type="curve" smooth="yes"/>
      <point x="421" y="549"/>
      <point x="428" y="545"/>
      <point x="428" y="536" type="curve" smooth="yes"/>
      <point x="428" y="532"/>
      <point x="426" y="529"/>
      <point x="424" y="525" type="curve" smooth="yes"/>
      <point x="402" y="482"/>
      <point x="366" y="436"/>
      <point x="346" y="410" type="curve" smooth="yes"/>
      <point x="342" y="407"/>
      <point x="339" y="405"/>
      <point x="333" y="405" type="curve" smooth="yes"/>
      <point x="330" y="405"/>
      <point x="328" y="407"/>
      <point x="325" y="407" type="curve" smooth="yes"/>
      <point x="199" y="436"/>
      <point x="115" y="541"/>
      <point x="115" y="647" type="curve" smooth="yes"/>
      <point x="115" y="823"/>
      <point x="262" y="966"/>
      <point x="371" y="1067" type="curve" smooth="yes"/>
      <point x="380" y="1075"/>
      <point x="387" y="1081"/>
      <point x="395" y="1081" type="curve" smooth="yes"/>
      <point x="400" y="1081"/>
      <point x="410" y="1075"/>
      <point x="419" y="1072" type="curve" smooth="yes"/>
      <point x="545" y="1021"/>
      <point x="672" y="970"/>
      <point x="730" y="925" type="curve" smooth="yes"/>
      <point x="795" y="872"/>
      <point x="841" y="790"/>
      <point x="851" y="735" type="curve" smooth="yes"/>
      <point x="874" y="620"/>
      <point x="876" y="445"/>
      <point x="876" y="317" type="curve" smooth="yes"/>
      <point x="876" y="269"/>
      <point x="874" y="246"/>
      <point x="858" y="207" type="curve" smooth="yes"/>
      <point x="838" y="154"/>
      <point x="819" y="95"/>
      <point x="773" y="22" type="curve" smooth="yes"/>
      <point x="758" y="0"/>
      <point x="753" y="0"/>
      <point x="711" y="0" type="curve"/>
      <point x="97" y="0" type="line"/>
      <point x="79" y="0"/>
      <point x="74" y="9"/>
      <point x="74" y="18" type="curve" smooth="yes"/>
      <point x="74" y="24"/>
      <point x="77" y="31"/>
    </contour>
  </outline>
</glyph>
<glyph name="tavhebrew" format="1">
  <advance width="1301"/>
  <unicode hex="05EA"/>
  <outline>
    <contour>
      <point x="172" y="152" type="curve" smooth="yes"/>
      <point x="179" y="163"/>
      <point x="183" y="166"/>
      <point x="208" y="166" type="curve"/>
      <point x="405" y="166" type="line"/>
      <point x="421" y="166"/>
      <point x="424" y="176"/>
      <point x="424" y="186" type="curve" smooth="yes"/>
      <point x="424" y="219"/>
      <point x="347" y="643"/>
      <point x="287" y="795" type="curve" smooth="yes"/>
      <point x="282" y="812"/>
      <point x="269" y="823"/>
      <point x="255" y="823" type="curve"/>
      <point x="135" y="823" type="line"/>
      <point x="118" y="823"/>
      <point x="102" y="833"/>
      <point x="102" y="850" type="curve" smooth="yes"/>
      <point x="102" y="853"/>
      <point x="104" y="858"/>
      <point x="108" y="864" type="curve" smooth="yes"/>
      <point x="127" y="898"/>
      <point x="229" y="1040"/>
      <point x="265" y="1072" type="curve" smooth="yes"/>
      <point x="269" y="1075"/>
      <point x="277" y="1081"/>
      <point x="285" y="1081" type="curve" smooth="yes"/>
      <point x="296" y="1081"/>
      <point x="306" y="1072"/>
      <point x="313" y="1054" type="curve" smooth="yes"/>
      <point x="330" y="1012"/>
      <point x="335" y="989"/>
      <point x="364" y="989" type="curve"/>
      <point x="869" y="989" type="line"/>
      <point x="984" y="989"/>
      <point x="1050" y="946"/>
      <point x="1084" y="882" type="curve" smooth="yes"/>
      <point x="1125" y="805"/>
      <point x="1136" y="466"/>
      <point x="1136" y="272" type="curve" smooth="yes"/>
      <point x="1136" y="217"/>
      <point x="1136" y="174"/>
      <point x="1134" y="151" type="curve" smooth="yes"/>
      <point x="1132" y="125"/>
      <point x="1131" y="118"/>
      <point x="1127" y="108" type="curve" smooth="yes"/>
      <point x="1106" y="55"/>
      <point x="1084" y="11"/>
      <point x="1059" y="-31" type="curve" smooth="yes"/>
      <point x="1054" y="-39"/>
      <point x="1045" y="-46"/>
      <point x="1038" y="-46" type="curve" smooth="yes"/>
      <point x="1029" y="-46"/>
      <point x="1019" y="-39"/>
      <point x="1018" y="-22" type="curve" smooth="yes"/>
      <point x="1012" y="31"/>
      <point x="1004" y="600"/>
      <point x="977" y="706" type="curve" smooth="yes"/>
      <point x="957" y="781"/>
      <point x="925" y="821"/>
      <point x="860" y="821" type="curve"/>
      <point x="475" y="821" type="line"/>
      <point x="457" y="821"/>
      <point x="448" y="816"/>
      <point x="448" y="810" type="curve"/>
      <point x="448" y="810"/>
      <point x="448" y="803"/>
      <point x="452" y="787" type="curve" smooth="yes"/>
      <point x="475" y="681"/>
      <point x="515" y="453"/>
      <point x="527" y="347" type="curve" smooth="yes"/>
      <point x="529" y="333"/>
      <point x="530" y="312"/>
      <point x="530" y="303" type="curve" smooth="yes"/>
      <point x="530" y="289"/>
      <point x="529" y="276"/>
      <point x="527" y="267" type="curve" smooth="yes"/>
      <point x="515" y="204"/>
      <point x="475" y="81"/>
      <point x="453" y="31" type="curve" smooth="yes"/>
      <point x="446" y="12"/>
      <point x="432" y="0"/>
      <point x="410" y="0" type="curve"/>
      <point x="97" y="0" type="line"/>
      <point x="88" y="0"/>
      <point x="81" y="5"/>
      <point x="81" y="12" type="curve" smooth="yes"/>
      <point x="81" y="16"/>
      <point x="84" y="24"/>
      <point x="88" y="29" type="curve" smooth="yes"/>
      <point x="113" y="72"/>
      <point x="142" y="115"/>
    </contour>
  </outline>
</glyph>
<glyph name="emdash" format="1">
  <advance width="1197"/>
  <unicode hex="2014"/>
  <outline>
    <contour>
      <point x="204" y="547" type="curve" smooth="yes"/>
      <point x="221" y="561"/>
      <point x="233" y="561"/>
      <point x="246" y="561" type="curve" smooth="yes"/>
      <point x="1036" y="561" type="line" smooth="yes"/>
      <point x="1055" y="561"/>
      <point x="1062" y="554"/>
      <point x="1062" y="543" type="curve" smooth="yes"/>
      <point x="1062" y="536"/>
      <point x="1057" y="525"/>
      <point x="1052" y="518" type="curve" smooth="yes"/>
      <point x="1025" y="477"/>
      <point x="1027" y="477"/>
      <point x="998" y="445" type="curve" smooth="yes"/>
      <point x="985" y="431"/>
      <point x="973" y="431"/>
      <point x="954" y="431" type="curve" smooth="yes"/>
      <point x="161" y="431" type="line" smooth="yes"/>
      <point x="142" y="431"/>
      <point x="135" y="438"/>
      <point x="135" y="446" type="curve" smooth="yes"/>
      <point x="135" y="452"/>
      <point x="137" y="457"/>
      <point x="138" y="460" type="curve" smooth="yes"/>
      <point x="166" y="508"/>
      <point x="185" y="527"/>
    </contour>
  </outline>
</glyph>
<glyph name="quoteleft" format="1">
  <advance width="556"/>
  <unicode hex="2018"/>
  <outline>
    <contour>
      <point x="333" y="753" type="curve" smooth="yes"/>
      <point x="333" y="696"/>
      <point x="349" y="648"/>
      <point x="359" y="624" type="curve" smooth="yes"/>
      <point x="361" y="619"/>
      <point x="362" y="614"/>
      <point x="362" y="609" type="curve" smooth="yes"/>
      <point x="362" y="604"/>
      <point x="361" y="599"/>
      <point x="357" y="593" type="curve" smooth="yes"/>
      <point x="337" y="564"/>
      <point x="289" y="503"/>
      <point x="256" y="466" type="curve" smooth="yes"/>
      <point x="251" y="460"/>
      <point x="246" y="459"/>
      <point x="240" y="459" type="curve" smooth="yes"/>
      <point x="235" y="459"/>
      <point x="229" y="462"/>
      <point x="226" y="468" type="curve" smooth="yes"/>
      <point x="210" y="496"/>
      <point x="169" y="575"/>
      <point x="169" y="650" type="curve" smooth="yes"/>
      <point x="169" y="713"/>
      <point x="188" y="769"/>
      <point x="202" y="803" type="curve" smooth="yes"/>
      <point x="221" y="846"/>
      <point x="371" y="1122"/>
      <point x="396" y="1122" type="curve" smooth="yes"/>
      <point x="403" y="1122"/>
      <point x="414" y="1118"/>
      <point x="414" y="1110" type="curve" smooth="yes"/>
      <point x="414" y="1086"/>
      <point x="333" y="830"/>
    </contour>
  </outline>
</glyph>
<glyph name="quoteright" format="1">
  <advance width="556"/>
  <unicode hex="2019"/>
  <outline>
    <contour>
      <point x="222" y="828" type="curve" smooth="yes"/>
      <point x="222" y="886"/>
      <point x="207" y="932"/>
      <point x="197" y="957" type="curve" smooth="yes"/>
      <point x="195" y="963"/>
      <point x="193" y="966"/>
      <point x="193" y="971" type="curve" smooth="yes"/>
      <point x="193" y="977"/>
      <point x="195" y="982"/>
      <point x="199" y="987" type="curve" smooth="yes"/>
      <point x="219" y="1016"/>
      <point x="267" y="1077"/>
      <point x="299" y="1115" type="curve" smooth="yes"/>
      <point x="305" y="1120"/>
      <point x="310" y="1122"/>
      <point x="315" y="1122" type="curve" smooth="yes"/>
      <point x="321" y="1122"/>
      <point x="326" y="1118"/>
      <point x="330" y="1113" type="curve" smooth="yes"/>
      <point x="346" y="1084"/>
      <point x="387" y="1005"/>
      <point x="387" y="930" type="curve" smooth="yes"/>
      <point x="387" y="867"/>
      <point x="368" y="812"/>
      <point x="353" y="778" type="curve" smooth="yes"/>
      <point x="335" y="735"/>
      <point x="185" y="459"/>
      <point x="159" y="459" type="curve" smooth="yes"/>
      <point x="152" y="459"/>
      <point x="142" y="462"/>
      <point x="142" y="472" type="curve" smooth="yes"/>
      <point x="142" y="494"/>
      <point x="222" y="751"/>
    </contour>
  </outline>
</glyph>
<glyph name="quotedblright" format="1">
  <advance width="1007"/>
  <unicode hex="201D"/>
  <outline>
    <contour>
      <point x="222" y="828" type="curve" smooth="yes"/>
      <point x="222" y="886"/>
      <point x="207" y="932"/>
      <point x="197" y="957" type="curve" smooth="yes"/>
      <point x="195" y="963"/>
      <point x="193" y="966"/>
      <point x="193" y="971" type="curve" smooth="yes"/>
      <point x="193" y="977"/>
      <point x="195" y="982"/>
      <point x="199" y="987" type="curve" smooth="yes"/>
      <point x="219" y="1016"/>
      <point x="267" y="1077"/>
      <point x="299" y="1115" type="curve" smooth="yes"/>
      <point x="305" y="1120"/>
      <point x="310" y="1122"/>
      <point x="315" y="1122" type="curve" smooth="yes"/>
      <point x="321" y="1122"/>
      <point x="326" y="1118"/>
      <point x="330" y="1113" type="curve" smooth="yes"/>
      <point x="346" y="1084"/>
      <point x="387" y="1005"/>
      <point x="387" y="930" type="curve" smooth="yes"/>
      <point x="387" y="867"/>
      <point x="368" y="812"/>
      <point x="353" y="778" type="curve" smooth="yes"/>
      <point x="335" y="735"/>
      <point x="185" y="459"/>
      <point x="159" y="459" type="curve" smooth="yes"/>
      <point x="152" y="459"/>
      <point x="142" y="462"/>
      <point x="142" y="472" type="curve" smooth="yes"/>
      <point x="142" y="494"/>
      <point x="222" y="751"/>
    </contour>
    <contour>
      <point x="674" y="828" type="curve" smooth="yes"/>
      <point x="674" y="886"/>
      <point x="658" y="932"/>
      <point x="648" y="957" type="curve" smooth="yes"/>
      <point x="647" y="963"/>
      <point x="645" y="966"/>
      <point x="645" y="971" type="curve" smooth="yes"/>
      <point x="645" y="977"/>
      <point x="647" y="982"/>
      <point x="650" y="987" type="curve" smooth="yes"/>
      <point x="670" y="1016"/>
      <point x="718" y="1077"/>
      <point x="751" y="1115" type="curve" smooth="yes"/>
      <point x="756" y="1120"/>
      <point x="761" y="1122"/>
      <point x="767" y="1122" type="curve" smooth="yes"/>
      <point x="773" y="1122"/>
      <point x="778" y="1118"/>
      <point x="781" y="1113" type="curve" smooth="yes"/>
      <point x="797" y="1084"/>
      <point x="838" y="1005"/>
      <point x="838" y="930" type="curve" smooth="yes"/>
      <point x="838" y="867"/>
      <point x="819" y="812"/>
      <point x="805" y="778" type="curve" smooth="yes"/>
      <point x="787" y="735"/>
      <point x="636" y="459"/>
      <point x="611" y="459" type="curve" smooth="yes"/>
      <point x="604" y="459"/>
      <point x="593" y="462"/>
      <point x="593" y="472" type="curve" smooth="yes"/>
      <point x="593" y="494"/>
      <point x="674" y="751"/>
    </contour>
  </outline>
</glyph>
<glyph name="bullet" format="1">
  <advance width="650"/>
  <unicode hex="2022"/>
  <outline>
    <contour>
      <point x="346" y="199" type="curve" smooth="yes"/>
      <point x="294" y="226"/>
      <point x="185" y="312"/>
      <point x="172" y="326" type="curve" smooth="yes"/>
      <point x="171" y="328"/>
      <point x="166" y="333"/>
      <point x="166" y="339" type="curve" smooth="yes"/>
      <point x="166" y="342"/>
      <point x="169" y="347"/>
      <point x="174" y="355" type="curve"/>
      <point x="274" y="496" type="line"/>
      <point x="279" y="503"/>
      <point x="289" y="508"/>
      <point x="296" y="508" type="curve" smooth="yes"/>
      <point x="305" y="508"/>
      <point x="312" y="503"/>
      <point x="317" y="496" type="curve" smooth="yes"/>
      <point x="357" y="450"/>
      <point x="428" y="410"/>
      <point x="466" y="390" type="curve" smooth="yes"/>
      <point x="475" y="387"/>
      <point x="482" y="371"/>
      <point x="482" y="361" type="curve" smooth="yes"/>
      <point x="482" y="357"/>
      <point x="482" y="353"/>
      <point x="480" y="351" type="curve" smooth="yes"/>
      <point x="455" y="313"/>
      <point x="403" y="244"/>
      <point x="382" y="208" type="curve" smooth="yes"/>
      <point x="376" y="200"/>
      <point x="368" y="195"/>
      <point x="359" y="195" type="curve" smooth="yes"/>
      <point x="355" y="195"/>
      <point x="349" y="197"/>
    </contour>
  </outline>
</glyph>
<glyph name="sheqelhebrew" format="1">
  <advance width="1527"/>
  <unicode hex="20AA"/>
  <outline>
    <contour>
      <point x="210" y="-36" type="curve" smooth="yes"/>
      <point x="195" y="369"/>
      <point x="185" y="662"/>
      <point x="131" y="828" type="curve" smooth="yes"/>
      <point x="127" y="837"/>
      <point x="125" y="848"/>
      <point x="125" y="855" type="curve" smooth="yes"/>
      <point x="125" y="869"/>
      <point x="131" y="880"/>
      <point x="135" y="889" type="curve" smooth="yes"/>
      <point x="145" y="908"/>
      <point x="231" y="1040"/>
      <point x="258" y="1070" type="curve" smooth="yes"/>
      <point x="263" y="1075"/>
      <point x="274" y="1081"/>
      <point x="282" y="1081" type="curve" smooth="yes"/>
      <point x="291" y="1081"/>
      <point x="303" y="1075"/>
      <point x="308" y="1061" type="curve" smooth="yes"/>
      <point x="313" y="1047"/>
      <point x="317" y="1009"/>
      <point x="332" y="1002" type="curve" smooth="yes"/>
      <point x="346" y="993"/>
      <point x="378" y="989"/>
      <point x="403" y="989" type="curve" smooth="yes"/>
      <point x="747" y="989" type="line" smooth="yes"/>
      <point x="901" y="989"/>
      <point x="1027" y="918"/>
      <point x="1027" y="756" type="curve" smooth="yes"/>
      <point x="1027" y="656"/>
      <point x="987" y="552"/>
      <point x="930" y="489" type="curve" smooth="yes"/>
      <point x="869" y="421"/>
      <point x="797" y="368"/>
      <point x="732" y="328" type="curve" smooth="yes"/>
      <point x="718" y="321"/>
      <point x="715" y="312"/>
      <point x="715" y="303" type="curve" smooth="yes"/>
      <point x="715" y="298"/>
      <point x="717" y="289"/>
      <point x="718" y="282" type="curve" smooth="yes"/>
      <point x="730" y="236"/>
      <point x="744" y="200"/>
      <point x="758" y="181" type="curve" smooth="yes"/>
      <point x="776" y="156"/>
      <point x="837" y="137"/>
      <point x="879" y="137" type="curve" smooth="yes"/>
      <point x="934" y="137"/>
      <point x="1036" y="185"/>
      <point x="1117" y="253" type="curve" smooth="yes"/>
      <point x="1168" y="298"/>
      <point x="1251" y="417"/>
      <point x="1251" y="563" type="curve" smooth="yes"/>
      <point x="1251" y="674"/>
      <point x="1233" y="785"/>
      <point x="1201" y="869" type="curve" smooth="yes"/>
      <point x="1195" y="886"/>
      <point x="1190" y="900"/>
      <point x="1190" y="912" type="curve" smooth="yes"/>
      <point x="1190" y="927"/>
      <point x="1197" y="937"/>
      <point x="1208" y="951" type="curve" smooth="yes"/>
      <point x="1228" y="978"/>
      <point x="1272" y="1029"/>
      <point x="1312" y="1070" type="curve" smooth="yes"/>
      <point x="1317" y="1075"/>
      <point x="1327" y="1081"/>
      <point x="1332" y="1081" type="curve" smooth="yes"/>
      <point x="1339" y="1081"/>
      <point x="1346" y="1072"/>
      <point x="1348" y="1065" type="curve" smooth="yes"/>
      <point x="1387" y="949"/>
      <point x="1404" y="841"/>
      <point x="1404" y="735" type="curve" smooth="yes"/>
      <point x="1404" y="570"/>
      <point x="1332" y="395"/>
      <point x="1251" y="265" type="curve" smooth="yes"/>
      <point x="1138" y="84"/>
      <point x="993" y="-31"/>
      <point x="785" y="-31" type="curve" smooth="yes"/>
      <point x="641" y="-31"/>
      <point x="609" y="116"/>
      <point x="575" y="284" type="curve" smooth="yes"/>
      <point x="561" y="353"/>
      <point x="527" y="522"/>
      <point x="475" y="590" type="curve" smooth="yes"/>
      <point x="472" y="595"/>
      <point x="470" y="600"/>
      <point x="470" y="604" type="curve" smooth="yes"/>
      <point x="470" y="609"/>
      <point x="472" y="613"/>
      <point x="475" y="620" type="curve" smooth="yes"/>
      <point x="491" y="647"/>
      <point x="543" y="715"/>
      <point x="571" y="744" type="curve" smooth="yes"/>
      <point x="581" y="753"/>
      <point x="586" y="756"/>
      <point x="593" y="756" type="curve" smooth="yes"/>
      <point x="606" y="756"/>
      <point x="613" y="744"/>
      <point x="617" y="737" type="curve" smooth="yes"/>
      <point x="662" y="641"/>
      <point x="660" y="585"/>
      <point x="674" y="513" type="curve" smooth="yes"/>
      <point x="686" y="448" type="line" smooth="yes"/>
      <point x="688" y="441"/>
      <point x="694" y="436"/>
      <point x="701" y="436" type="curve"/>
      <point x="788" y="436"/>
      <point x="871" y="573"/>
      <point x="871" y="701" type="curve" smooth="yes"/>
      <point x="871" y="761"/>
      <point x="855" y="819"/>
      <point x="697" y="819" type="curve" smooth="yes"/>
      <point x="362" y="819" type="line" smooth="yes"/>
      <point x="330" y="819"/>
      <point x="319" y="797"/>
      <point x="319" y="769" type="curve" smooth="yes"/>
      <point x="319" y="761"/>
      <point x="337" y="513"/>
      <point x="337" y="385" type="curve" smooth="yes"/>
      <point x="337" y="296"/>
      <point x="337" y="229"/>
      <point x="332" y="158" type="curve" smooth="yes"/>
      <point x="330" y="133"/>
      <point x="325" y="111"/>
      <point x="317" y="97" type="curve" smooth="yes"/>
      <point x="296" y="52"/>
      <point x="274" y="7"/>
      <point x="233" y="-39" type="curve" smooth="yes"/>
      <point x="226" y="-46"/>
      <point x="222" y="-46"/>
      <point x="219" y="-46" type="curve" smooth="yes"/>
      <point x="214" y="-46"/>
      <point x="210" y="-41"/>
    </contour>
  </outline>
</glyph>
<glyph name="radical" format="1">
  <advance width="1366"/>
  <unicode hex="221A"/>
  <outline>
    <contour>
      <point x="405" y="108" type="curve" smooth="yes"/>
      <point x="368" y="61"/>
      <point x="270" y="11"/>
      <point x="188" y="-22" type="curve" smooth="yes"/>
      <point x="179" y="-25"/>
      <point x="172" y="-27"/>
      <point x="171" y="-27" type="curve" smooth="yes"/>
      <point x="163" y="-27"/>
      <point x="159" y="-22"/>
      <point x="159" y="-11" type="curve" smooth="yes"/>
      <point x="159" y="7"/>
      <point x="197" y="104"/>
      <point x="204" y="123" type="curve" smooth="yes"/>
      <point x="210" y="135"/>
      <point x="215" y="145"/>
      <point x="224" y="152" type="curve" smooth="yes"/>
      <point x="251" y="174"/>
      <point x="292" y="186"/>
      <point x="337" y="210" type="curve" smooth="yes"/>
      <point x="366" y="224"/>
      <point x="395" y="244"/>
      <point x="410" y="277" type="curve" smooth="yes"/>
      <point x="457" y="373"/>
      <point x="516" y="518"/>
      <point x="516" y="607" type="curve" smooth="yes"/>
      <point x="516" y="667"/>
      <point x="515" y="722"/>
      <point x="486" y="742" type="curve" smooth="yes"/>
      <point x="448" y="767"/>
      <point x="371" y="795"/>
      <point x="319" y="824" type="curve" smooth="yes"/>
      <point x="298" y="837"/>
      <point x="279" y="844"/>
      <point x="269" y="857" type="curve" smooth="yes"/>
      <point x="238" y="891"/>
      <point x="235" y="937"/>
      <point x="235" y="993" type="curve" smooth="yes"/>
      <point x="235" y="1050"/>
      <point x="231" y="1132"/>
      <point x="204" y="1199" type="curve" smooth="yes"/>
      <point x="200" y="1208"/>
      <point x="199" y="1213"/>
      <point x="199" y="1217" type="curve" smooth="yes"/>
      <point x="199" y="1224"/>
      <point x="204" y="1231"/>
      <point x="210" y="1240" type="curve" smooth="yes"/>
      <point x="233" y="1279"/>
      <point x="272" y="1328"/>
      <point x="296" y="1351" type="curve" smooth="yes"/>
      <point x="299" y="1355"/>
      <point x="303" y="1358"/>
      <point x="306" y="1358" type="curve" smooth="yes"/>
      <point x="312" y="1358"/>
      <point x="319" y="1353"/>
      <point x="326" y="1342" type="curve" smooth="yes"/>
      <point x="353" y="1303"/>
      <point x="368" y="1219"/>
      <point x="368" y="1152" type="curve" smooth="yes"/>
      <point x="368" y="1054"/>
      <point x="371" y="991"/>
      <point x="412" y="970" type="curve" smooth="yes"/>
      <point x="607" y="867" type="line" smooth="yes"/>
      <point x="645" y="848"/>
      <point x="672" y="797"/>
      <point x="672" y="746" type="curve" smooth="yes"/>
      <point x="672" y="730"/>
      <point x="694" y="717"/>
      <point x="710" y="703" type="curve" smooth="yes"/>
      <point x="874" y="556"/>
      <point x="927" y="511"/>
      <point x="927" y="511" type="curve"/>
      <point x="930" y="509"/>
      <point x="934" y="506"/>
      <point x="939" y="506" type="curve" smooth="yes"/>
      <point x="942" y="506"/>
      <point x="946" y="508"/>
      <point x="949" y="513" type="curve" smooth="yes"/>
      <point x="991" y="570"/>
      <point x="1009" y="677"/>
      <point x="1009" y="746" type="curve" smooth="yes"/>
      <point x="1009" y="790"/>
      <point x="1000" y="848"/>
      <point x="970" y="905" type="curve" smooth="yes"/>
      <point x="966" y="912"/>
      <point x="963" y="918"/>
      <point x="963" y="925" type="curve" smooth="yes"/>
      <point x="963" y="930"/>
      <point x="964" y="937"/>
      <point x="968" y="942" type="curve" smooth="yes"/>
      <point x="989" y="975"/>
      <point x="1055" y="1047"/>
      <point x="1082" y="1074" type="curve" smooth="yes"/>
      <point x="1088" y="1079"/>
      <point x="1089" y="1082"/>
      <point x="1098" y="1082" type="curve" smooth="yes"/>
      <point x="1103" y="1082"/>
      <point x="1106" y="1079"/>
      <point x="1108" y="1077" type="curve" smooth="yes"/>
      <point x="1140" y="1034"/>
      <point x="1178" y="964"/>
      <point x="1178" y="869" type="curve" smooth="yes"/>
      <point x="1178" y="790"/>
      <point x="1154" y="727"/>
      <point x="1136" y="681" type="curve" smooth="yes"/>
      <point x="1113" y="619"/>
      <point x="1059" y="525"/>
      <point x="1018" y="464" type="curve" smooth="yes"/>
      <point x="1009" y="450"/>
      <point x="1007" y="439"/>
      <point x="1007" y="439" type="curve"/>
      <point x="1007" y="434"/>
      <point x="1011" y="426"/>
      <point x="1014" y="423" type="curve" smooth="yes"/>
      <point x="1065" y="369"/>
      <point x="1262" y="156"/>
      <point x="1276" y="135" type="curve" smooth="yes"/>
      <point x="1279" y="129"/>
      <point x="1281" y="123"/>
      <point x="1281" y="118" type="curve" smooth="yes"/>
      <point x="1281" y="115"/>
      <point x="1281" y="109"/>
      <point x="1279" y="104" type="curve" smooth="yes"/>
      <point x="1269" y="72"/>
      <point x="1233" y="-7"/>
      <point x="1221" y="-32" type="curve" smooth="yes"/>
      <point x="1217" y="-39"/>
      <point x="1211" y="-45"/>
      <point x="1206" y="-45" type="curve" smooth="yes"/>
      <point x="1201" y="-45"/>
      <point x="1197" y="-41"/>
      <point x="1192" y="-36" type="curve" smooth="yes"/>
      <point x="1111" y="67"/>
      <point x="1011" y="181"/>
      <point x="961" y="233" type="curve" smooth="yes"/>
      <point x="841" y="359"/>
      <point x="767" y="436"/>
      <point x="650" y="536" type="curve" smooth="yes"/>
      <point x="647" y="539"/>
      <point x="641" y="543"/>
      <point x="636" y="543" type="curve" smooth="yes"/>
      <point x="629" y="543"/>
      <point x="624" y="537"/>
      <point x="622" y="529" type="curve" smooth="yes"/>
      <point x="599" y="405"/>
      <point x="506" y="229"/>
    </contour>
  </outline>
</glyph>
<glyph name="uniFB29" format="1">
  <advance width="1018"/>
  <unicode hex="FB29"/>
  <outline>
    <contour>
      <point x="566" y="503" type="line"/>
      <point x="663" y="501"/>
      <point x="871" y="500"/>
      <point x="871" y="500" type="curve"/>
      <point x="894" y="500"/>
      <point x="900" y="511"/>
      <point x="900" y="527" type="curve" smooth="yes"/>
      <point x="900" y="604" type="line" smooth="yes"/>
      <point x="900" y="629"/>
      <point x="891" y="633"/>
      <point x="874" y="633" type="curve" smooth="yes"/>
      <point x="874" y="633"/>
      <point x="677" y="627"/>
      <point x="566" y="627" type="curve"/>
      <point x="566" y="727"/>
      <point x="571" y="923"/>
      <point x="571" y="923" type="curve"/>
      <point x="571" y="946"/>
      <point x="561" y="951"/>
      <point x="545" y="951" type="curve" smooth="yes"/>
      <point x="468" y="951" type="line" smooth="yes"/>
      <point x="443" y="951"/>
      <point x="439" y="937"/>
      <point x="439" y="927" type="curve" smooth="yes"/>
      <point x="439" y="927"/>
      <point x="443" y="740"/>
      <point x="445" y="627" type="curve"/>
      <point x="315" y="629"/>
      <point x="147" y="633"/>
      <point x="147" y="633" type="curve"/>
      <point x="123" y="633"/>
      <point x="118" y="622"/>
      <point x="118" y="604" type="curve" smooth="yes"/>
      <point x="118" y="527" type="line" smooth="yes"/>
      <point x="118" y="511"/>
      <point x="123" y="500"/>
      <point x="147" y="500" type="curve" smooth="yes"/>
      <point x="147" y="500"/>
      <point x="319" y="501"/>
      <point x="445" y="503" type="curve"/>
    </contour>
  </outline>
</glyph>
<glyph name="shinshindothebrew" format="1">
  <advance width="1301"/>
  <unicode hex="FB2A"/>
  <outline>
    <contour>
      <point x="1043" y="1199" type="curve" smooth="yes"/>
      <point x="1043" y="1159"/>
      <point x="1009" y="1127"/>
      <point x="970" y="1127" type="curve" smooth="yes"/>
      <point x="928" y="1127"/>
      <point x="896" y="1159"/>
      <point x="896" y="1199" type="curve" smooth="yes"/>
      <point x="896" y="1240"/>
      <point x="928" y="1272"/>
      <point x="970" y="1272" type="curve" smooth="yes"/>
      <point x="1009" y="1272"/>
      <point x="1043" y="1240"/>
    </contour>
    <component base="shinhebrew"/>
  </outline>
</glyph>
<glyph name="dagger.001" format="1">
  <advance width="1048"/>
  <outline>
    <contour>
      <point x="564" y="262" type="curve"/>
      <point x="568" y="506"/>
      <point x="722" y="715"/>
      <point x="928" y="717" type="curve" smooth="yes"/>
      <point x="937" y="717"/>
      <point x="941" y="722"/>
      <point x="941" y="730" type="curve" smooth="yes"/>
      <point x="941" y="735"/>
      <point x="937" y="746"/>
      <point x="934" y="753" type="curve"/>
      <point x="874" y="891" type="line" smooth="yes"/>
      <point x="871" y="900"/>
      <point x="867" y="903"/>
      <point x="850" y="903" type="curve" smooth="yes"/>
      <point x="787" y="903"/>
      <point x="636" y="735"/>
      <point x="581" y="561" type="curve" smooth="yes"/>
      <point x="575" y="545"/>
      <point x="571" y="536"/>
      <point x="568" y="536" type="curve" smooth="yes"/>
      <point x="564" y="536"/>
      <point x="561" y="547"/>
      <point x="561" y="573" type="curve" smooth="yes"/>
      <point x="561" y="667"/>
      <point x="619" y="1113"/>
      <point x="619" y="1192" type="curve" smooth="yes"/>
      <point x="619" y="1217"/>
      <point x="617" y="1226"/>
      <point x="604" y="1226" type="curve" smooth="yes"/>
      <point x="441" y="1226" type="line" smooth="yes"/>
      <point x="432" y="1226"/>
      <point x="428" y="1217"/>
      <point x="428" y="1197" type="curve" smooth="yes"/>
      <point x="428" y="1113"/>
      <point x="486" y="667"/>
      <point x="486" y="573" type="curve" smooth="yes"/>
      <point x="486" y="547"/>
      <point x="484" y="534"/>
      <point x="480" y="534" type="curve" smooth="yes"/>
      <point x="477" y="534"/>
      <point x="472" y="545"/>
      <point x="464" y="561" type="curve" smooth="yes"/>
      <point x="385" y="756"/>
      <point x="260" y="903"/>
      <point x="197" y="903" type="curve" smooth="yes"/>
      <point x="179" y="903"/>
      <point x="176" y="900"/>
      <point x="172" y="893" type="curve" smooth="yes"/>
      <point x="113" y="753" type="line" smooth="yes"/>
      <point x="109" y="744"/>
      <point x="106" y="737"/>
      <point x="106" y="732" type="curve" smooth="yes"/>
      <point x="106" y="724"/>
      <point x="109" y="717"/>
      <point x="118" y="717" type="curve" smooth="yes"/>
      <point x="310" y="717"/>
      <point x="482" y="498"/>
      <point x="482" y="260" type="curve" smooth="yes"/>
      <point x="482" y="133"/>
      <point x="446" y="-36"/>
      <point x="446" y="-50" type="curve" smooth="yes"/>
      <point x="446" y="-60"/>
      <point x="448" y="-72"/>
      <point x="450" y="-79" type="curve" smooth="yes"/>
      <point x="457" y="-115"/>
      <point x="496" y="-258"/>
      <point x="506" y="-292" type="curve" smooth="yes"/>
      <point x="509" y="-306"/>
      <point x="516" y="-312"/>
      <point x="525" y="-312" type="curve" smooth="yes"/>
      <point x="534" y="-312"/>
      <point x="541" y="-306"/>
      <point x="545" y="-292" type="curve" smooth="yes"/>
      <point x="597" y="-77" type="line"/>
      <point x="599" y="-65"/>
      <point x="599" y="-63"/>
      <point x="599" y="-50" type="curve" smooth="yes"/>
      <point x="599" y="-34"/>
      <point x="564" y="133"/>
    </contour>
  </outline>
</glyph>
<glyph name="daggerdbl.001" format="1">
  <advance width="1047"/>
  <outline>
    <contour>
      <point x="862" y="385" type="curve" smooth="yes"/>
      <point x="872" y="385"/>
      <point x="876" y="389"/>
      <point x="876" y="395" type="curve" smooth="yes"/>
      <point x="876" y="398"/>
      <point x="874" y="405"/>
      <point x="871" y="412" type="curve" smooth="yes"/>
      <point x="819" y="545" type="line" smooth="yes"/>
      <point x="816" y="552"/>
      <point x="807" y="554"/>
      <point x="799" y="554" type="curve" smooth="yes"/>
      <point x="749" y="552"/>
      <point x="656" y="475"/>
      <point x="579" y="347" type="curve" smooth="yes"/>
      <point x="571" y="335"/>
      <point x="568" y="328"/>
      <point x="564" y="328" type="curve" smooth="yes"/>
      <point x="561" y="328"/>
      <point x="561" y="351"/>
      <point x="561" y="369" type="curve" smooth="yes"/>
      <point x="561" y="599"/>
      <point x="718" y="826"/>
      <point x="925" y="828" type="curve" smooth="yes"/>
      <point x="934" y="828"/>
      <point x="939" y="831"/>
      <point x="939" y="838" type="curve" smooth="yes"/>
      <point x="939" y="843"/>
      <point x="935" y="853"/>
      <point x="930" y="864" type="curve" smooth="yes"/>
      <point x="871" y="993" type="line" smooth="yes"/>
      <point x="867" y="1000"/>
      <point x="864" y="1005"/>
      <point x="857" y="1005" type="curve" smooth="yes"/>
      <point x="783" y="1000"/>
      <point x="650" y="865"/>
      <point x="575" y="658" type="curve" smooth="yes"/>
      <point x="571" y="647"/>
      <point x="566" y="638"/>
      <point x="563" y="638" type="curve" smooth="yes"/>
      <point x="559" y="638"/>
      <point x="556" y="647"/>
      <point x="556" y="667" type="curve" smooth="yes"/>
      <point x="556" y="760"/>
      <point x="613" y="1104"/>
      <point x="613" y="1199" type="curve" smooth="yes"/>
      <point x="613" y="1221"/>
      <point x="609" y="1226"/>
      <point x="604" y="1226" type="curve" smooth="yes"/>
      <point x="443" y="1226" type="line" smooth="yes"/>
      <point x="434" y="1226"/>
      <point x="431" y="1221"/>
      <point x="431" y="1199" type="curve" smooth="yes"/>
      <point x="431" y="1103"/>
      <point x="487" y="760"/>
      <point x="487" y="667" type="curve" smooth="yes"/>
      <point x="487" y="647"/>
      <point x="484" y="638"/>
      <point x="480" y="638" type="curve" smooth="yes"/>
      <point x="477" y="638"/>
      <point x="472" y="647"/>
      <point x="468" y="658" type="curve" smooth="yes"/>
      <point x="398" y="865"/>
      <point x="260" y="1002"/>
      <point x="190" y="1005" type="curve" smooth="yes"/>
      <point x="179" y="1005"/>
      <point x="176" y="1002"/>
      <point x="172" y="995" type="curve" smooth="yes"/>
      <point x="113" y="864" type="line"/>
      <point x="109" y="855"/>
      <point x="106" y="848"/>
      <point x="106" y="843" type="curve" smooth="yes"/>
      <point x="106" y="835"/>
      <point x="109" y="828"/>
      <point x="118" y="828" type="curve" smooth="yes"/>
      <point x="312" y="828"/>
      <point x="486" y="599"/>
      <point x="486" y="369" type="curve" smooth="yes"/>
      <point x="486" y="349"/>
      <point x="486" y="328"/>
      <point x="482" y="328" type="curve" smooth="yes"/>
      <point x="479" y="328"/>
      <point x="475" y="335"/>
      <point x="466" y="347" type="curve" smooth="yes"/>
      <point x="371" y="487"/>
      <point x="298" y="545"/>
      <point x="248" y="547" type="curve" smooth="yes"/>
      <point x="240" y="547"/>
      <point x="231" y="545"/>
      <point x="228" y="537" type="curve" smooth="yes"/>
      <point x="178" y="410" type="line" smooth="yes"/>
      <point x="174" y="403"/>
      <point x="172" y="396"/>
      <point x="172" y="395" type="curve" smooth="yes"/>
      <point x="172" y="389"/>
      <point x="176" y="385"/>
      <point x="181" y="385" type="curve" smooth="yes"/>
      <point x="340" y="385"/>
      <point x="486" y="312"/>
      <point x="486" y="142" type="curve" smooth="yes"/>
      <point x="486" y="36"/>
      <point x="448" y="-88"/>
      <point x="448" y="-99" type="curve" smooth="yes"/>
      <point x="448" y="-106"/>
      <point x="452" y="-118"/>
      <point x="453" y="-125" type="curve" smooth="yes"/>
      <point x="506" y="-292" type="line" smooth="yes"/>
      <point x="509" y="-305"/>
      <point x="515" y="-310"/>
      <point x="523" y="-310" type="curve" smooth="yes"/>
      <point x="532" y="-310"/>
      <point x="537" y="-305"/>
      <point x="541" y="-292" type="curve" smooth="yes"/>
      <point x="593" y="-125" type="line" smooth="yes"/>
      <point x="595" y="-116"/>
      <point x="597" y="-106"/>
      <point x="597" y="-99" type="curve" smooth="yes"/>
      <point x="597" y="-86"/>
      <point x="563" y="36"/>
      <point x="563" y="142" type="curve" smooth="yes"/>
      <point x="563" y="312"/>
      <point x="703" y="385"/>
    </contour>
  </outline>
</glyph>
<glyph name="orn.2" format="1">
  <advance width="1045"/>
  <outline>
    <contour>
      <point x="355" y="-222" type="curve" smooth="yes"/>
      <point x="375" y="-249"/>
      <point x="410" y="-284"/>
      <point x="432" y="-301" type="curve" smooth="yes"/>
      <point x="439" y="-306"/>
      <point x="446" y="-310"/>
      <point x="453" y="-310" type="curve" smooth="yes"/>
      <point x="462" y="-310"/>
      <point x="472" y="-305"/>
      <point x="479" y="-294" type="curve" smooth="yes"/>
      <point x="554" y="-186"/>
      <point x="557" y="-82"/>
      <point x="557" y="115" type="curve" smooth="yes"/>
      <point x="557" y="291"/>
      <point x="704" y="376"/>
      <point x="858" y="376" type="curve" smooth="yes"/>
      <point x="869" y="376"/>
      <point x="871" y="378"/>
      <point x="871" y="383" type="curve" smooth="yes"/>
      <point x="871" y="387"/>
      <point x="867" y="398"/>
      <point x="864" y="409" type="curve" smooth="yes"/>
      <point x="846" y="460"/>
      <point x="835" y="493"/>
      <point x="816" y="541" type="curve" smooth="yes"/>
      <point x="812" y="550"/>
      <point x="803" y="550"/>
      <point x="795" y="550" type="curve" smooth="yes"/>
      <point x="746" y="549"/>
      <point x="650" y="457"/>
      <point x="575" y="323" type="curve" smooth="yes"/>
      <point x="568" y="310"/>
      <point x="564" y="303"/>
      <point x="561" y="303" type="curve" smooth="yes"/>
      <point x="557" y="303"/>
      <point x="556" y="313"/>
      <point x="556" y="332" type="curve" smooth="yes"/>
      <point x="556" y="561"/>
      <point x="715" y="810"/>
      <point x="921" y="812" type="curve" smooth="yes"/>
      <point x="932" y="812"/>
      <point x="937" y="816"/>
      <point x="937" y="824" type="curve" smooth="yes"/>
      <point x="937" y="828"/>
      <point x="935" y="835"/>
      <point x="932" y="844" type="curve" smooth="yes"/>
      <point x="908" y="903"/>
      <point x="893" y="941"/>
      <point x="865" y="993" type="curve" smooth="yes"/>
      <point x="862" y="998"/>
      <point x="858" y="1002"/>
      <point x="850" y="1002" type="curve" smooth="yes"/>
      <point x="780" y="997"/>
      <point x="652" y="846"/>
      <point x="571" y="638" type="curve" smooth="yes"/>
      <point x="568" y="627"/>
      <point x="563" y="619"/>
      <point x="559" y="619" type="curve" smooth="yes"/>
      <point x="556" y="619"/>
      <point x="552" y="627"/>
      <point x="552" y="647" type="curve" smooth="yes"/>
      <point x="552" y="740"/>
      <point x="597" y="1040"/>
      <point x="597" y="1199" type="curve" smooth="yes"/>
      <point x="597" y="1221"/>
      <point x="593" y="1226"/>
      <point x="585" y="1226" type="curve" smooth="yes"/>
      <point x="575" y="1226"/>
      <point x="571" y="1224"/>
      <point x="552" y="1211" type="curve" smooth="yes"/>
      <point x="522" y="1192"/>
      <point x="479" y="1161"/>
      <point x="438" y="1127" type="curve" smooth="yes"/>
      <point x="428" y="1120"/>
      <point x="424" y="1111"/>
      <point x="424" y="1104" type="curve" smooth="yes"/>
      <point x="424" y="1050"/>
      <point x="487" y="740"/>
      <point x="487" y="647" type="curve" smooth="yes"/>
      <point x="487" y="627"/>
      <point x="484" y="619"/>
      <point x="480" y="619" type="curve" smooth="yes"/>
      <point x="477" y="619"/>
      <point x="472" y="627"/>
      <point x="468" y="638" type="curve" smooth="yes"/>
      <point x="396" y="846"/>
      <point x="260" y="998"/>
      <point x="190" y="1002" type="curve" smooth="yes"/>
      <point x="179" y="1002"/>
      <point x="176" y="998"/>
      <point x="172" y="991" type="curve" smooth="yes"/>
      <point x="113" y="848" type="line" smooth="yes"/>
      <point x="109" y="838"/>
      <point x="106" y="831"/>
      <point x="106" y="826" type="curve" smooth="yes"/>
      <point x="106" y="819"/>
      <point x="109" y="814"/>
      <point x="118" y="812" type="curve"/>
      <point x="344" y="803"/>
      <point x="486" y="561"/>
      <point x="486" y="332" type="curve" smooth="yes"/>
      <point x="486" y="312"/>
      <point x="486" y="303"/>
      <point x="482" y="303" type="curve" smooth="yes"/>
      <point x="479" y="303"/>
      <point x="475" y="310"/>
      <point x="466" y="323" type="curve" smooth="yes"/>
      <point x="371" y="462"/>
      <point x="298" y="541"/>
      <point x="248" y="543" type="curve" smooth="yes"/>
      <point x="240" y="543"/>
      <point x="231" y="543"/>
      <point x="228" y="534" type="curve" smooth="yes"/>
      <point x="210" y="489"/>
      <point x="195" y="459"/>
      <point x="178" y="403" type="curve" smooth="yes"/>
      <point x="174" y="393"/>
      <point x="172" y="387"/>
      <point x="172" y="385" type="curve" smooth="yes"/>
      <point x="172" y="380"/>
      <point x="176" y="376"/>
      <point x="181" y="376" type="curve" smooth="yes"/>
      <point x="339" y="376"/>
      <point x="482" y="294"/>
      <point x="482" y="115" type="curve" smooth="yes"/>
      <point x="482" y="-12"/>
      <point x="462" y="-89"/>
      <point x="355" y="-193" type="curve" smooth="yes"/>
      <point x="351" y="-197"/>
      <point x="347" y="-200"/>
      <point x="347" y="-207" type="curve" smooth="yes"/>
      <point x="347" y="-212"/>
      <point x="349" y="-215"/>
    </contour>
  </outline>
</glyph>
<glyph name="qamatsqatanhebrew" format="1">
  <advance width="0"/>
  <outline>
    <contour>
      <point x="291" y="-251" type="curve" smooth="yes"/>
      <point x="240" y="-248"/>
      <point x="214" y="-244"/>
      <point x="192" y="-240" type="curve" smooth="yes"/>
      <point x="174" y="-236"/>
      <point x="163" y="-235"/>
      <point x="163" y="-215" type="curve" smooth="yes"/>
      <point x="163" y="-169" type="line" smooth="yes"/>
      <point x="163" y="-154"/>
      <point x="171" y="-138"/>
      <point x="192" y="-138" type="curve" smooth="yes"/>
      <point x="219" y="-137"/>
      <point x="368" y="-131"/>
      <point x="368" y="-131" type="curve"/>
      <point x="438" y="-131"/>
      <point x="522" y="-138"/>
      <point x="545" y="-138" type="curve" smooth="yes"/>
      <point x="564" y="-138"/>
      <point x="571" y="-154"/>
      <point x="571" y="-169" type="curve" smooth="yes"/>
      <point x="571" y="-215" type="line" smooth="yes"/>
      <point x="571" y="-229"/>
      <point x="563" y="-236"/>
      <point x="545" y="-240" type="curve" smooth="yes"/>
      <point x="525" y="-244"/>
      <point x="491" y="-248"/>
      <point x="446" y="-251" type="curve" smooth="yes"/>
      <point x="436" y="-251"/>
      <point x="432" y="-256"/>
      <point x="431" y="-272" type="curve" smooth="yes"/>
      <point x="426" y="-299"/>
      <point x="416" y="-441"/>
      <point x="414" y="-452" type="curve" smooth="yes"/>
      <point x="410" y="-473"/>
      <point x="403" y="-479"/>
      <point x="387" y="-479" type="curve" smooth="yes"/>
      <point x="349" y="-479" type="line" smooth="yes"/>
      <point x="333" y="-479"/>
      <point x="328" y="-473"/>
      <point x="325" y="-452" type="curve" smooth="yes"/>
      <point x="321" y="-424"/>
      <point x="312" y="-301"/>
      <point x="308" y="-272" type="curve" smooth="yes"/>
      <point x="306" y="-253"/>
      <point x="298" y="-251"/>
    </contour>
  </outline>
</glyph>
<glyph name="seven.001" format="1">
  <advance width="896"/>
  <outline>
    <contour>
      <point x="217" y="147" type="curve" smooth="yes"/>
      <point x="249" y="233"/>
      <point x="357" y="387"/>
      <point x="441" y="530" type="curve" smooth="yes"/>
      <point x="513" y="652"/>
      <point x="583" y="747"/>
      <point x="583" y="803" type="curve" smooth="yes"/>
      <point x="583" y="814"/>
      <point x="573" y="817"/>
      <point x="559" y="817" type="curve" smooth="yes"/>
      <point x="106" y="817" type="line"/>
      <point x="88" y="817"/>
      <point x="74" y="831"/>
      <point x="74" y="848" type="curve" smooth="yes"/>
      <point x="74" y="853"/>
      <point x="77" y="857"/>
      <point x="77" y="860" type="curve" smooth="yes"/>
      <point x="113" y="923"/>
      <point x="181" y="1027"/>
      <point x="214" y="1061" type="curve" smooth="yes"/>
      <point x="219" y="1065"/>
      <point x="226" y="1074"/>
      <point x="233" y="1074" type="curve" smooth="yes"/>
      <point x="242" y="1074"/>
      <point x="255" y="1062"/>
      <point x="258" y="1052" type="curve" smooth="yes"/>
      <point x="270" y="1007"/>
      <point x="277" y="989"/>
      <point x="337" y="989" type="curve" smooth="yes"/>
      <point x="785" y="989" type="line"/>
      <point x="810" y="989"/>
      <point x="812" y="968"/>
      <point x="812" y="959" type="curve" smooth="yes"/>
      <point x="812" y="942"/>
      <point x="799" y="914"/>
      <point x="783" y="880" type="curve" smooth="yes"/>
      <point x="739" y="785"/>
      <point x="627" y="647"/>
      <point x="585" y="581" type="curve" smooth="yes"/>
      <point x="522" y="486"/>
      <point x="423" y="332"/>
      <point x="395" y="233" type="curve" smooth="yes"/>
      <point x="383" y="200"/>
      <point x="378" y="172"/>
      <point x="375" y="158" type="curve" smooth="yes"/>
      <point x="371" y="142"/>
      <point x="364" y="109"/>
      <point x="357" y="101" type="curve" smooth="yes"/>
      <point x="330" y="61"/>
      <point x="262" y="4"/>
      <point x="221" y="-31" type="curve" smooth="yes"/>
      <point x="214" y="-36"/>
      <point x="202" y="-43"/>
      <point x="195" y="-43" type="curve" smooth="yes"/>
      <point x="188" y="-43"/>
      <point x="185" y="-38"/>
      <point x="185" y="-31" type="curve" smooth="yes"/>
      <point x="185" y="38"/>
      <point x="200" y="101"/>
    </contour>
  </outline>
</glyph>
<glyph name="shekel.salt" format="1">
  <advance width="1016"/>
  <outline>
    <contour>
      <point x="50" y="593" type="curve" smooth="yes"/>
      <point x="67" y="633"/>
      <point x="109" y="706"/>
      <point x="123" y="724" type="curve" smooth="yes"/>
      <point x="131" y="733"/>
      <point x="138" y="742"/>
      <point x="144" y="742" type="curve" smooth="yes"/>
      <point x="151" y="742"/>
      <point x="154" y="739"/>
      <point x="158" y="732" type="curve" smooth="yes"/>
      <point x="185" y="667"/>
      <point x="202" y="597"/>
      <point x="214" y="549" type="curve" smooth="yes"/>
      <point x="217" y="530"/>
      <point x="235" y="523"/>
      <point x="267" y="523" type="curve" smooth="yes"/>
      <point x="344" y="523"/>
      <point x="434" y="547"/>
      <point x="508" y="592" type="curve" smooth="yes"/>
      <point x="545" y="613"/>
      <point x="564" y="676"/>
      <point x="564" y="703" type="curve"/>
      <point x="564" y="742"/>
      <point x="550" y="773"/>
      <point x="523" y="795" type="curve" smooth="yes"/>
      <point x="496" y="814"/>
      <point x="473" y="824"/>
      <point x="426" y="824" type="curve"/>
      <point x="145" y="824"/>
      <point x="104" y="826"/>
      <point x="99" y="826" type="curve" smooth="yes"/>
      <point x="72" y="826"/>
      <point x="48" y="835"/>
      <point x="27" y="858" type="curve" smooth="yes"/>
      <point x="4" y="882"/>
      <point x="-7" y="910"/>
      <point x="-7" y="946" type="curve"/>
      <point x="-7" y="1031"/>
      <point x="36" y="1120"/>
      <point x="140" y="1222" type="curve" smooth="yes"/>
      <point x="186" y="1267"/>
      <point x="256" y="1306"/>
      <point x="335" y="1334" type="curve" smooth="yes"/>
      <point x="359" y="1341"/>
      <point x="396" y="1349"/>
      <point x="464" y="1362" type="curve" smooth="yes"/>
      <point x="534" y="1376"/>
      <point x="593" y="1385"/>
      <point x="609" y="1385" type="curve" smooth="yes"/>
      <point x="620" y="1385"/>
      <point x="626" y="1380"/>
      <point x="626" y="1369" type="curve" smooth="yes"/>
      <point x="626" y="1364"/>
      <point x="622" y="1356"/>
      <point x="619" y="1348" type="curve" smooth="yes"/>
      <point x="600" y="1305"/>
      <point x="579" y="1272"/>
      <point x="547" y="1233" type="curve" smooth="yes"/>
      <point x="527" y="1209"/>
      <point x="516" y="1202"/>
      <point x="494" y="1202" type="curve" smooth="yes"/>
      <point x="424" y="1202"/>
      <point x="335" y="1195"/>
      <point x="262" y="1178" type="curve" smooth="yes"/>
      <point x="176" y="1158"/>
      <point x="131" y="1108"/>
      <point x="131" y="1040" type="curve" smooth="yes"/>
      <point x="131" y="1011"/>
      <point x="156" y="993"/>
      <point x="193" y="993" type="curve"/>
      <point x="515" y="993" type="line" smooth="yes"/>
      <point x="561" y="993"/>
      <point x="606" y="980"/>
      <point x="638" y="948" type="curve" smooth="yes"/>
      <point x="670" y="916"/>
      <point x="692" y="865"/>
      <point x="692" y="816" type="curve" smooth="yes"/>
      <point x="692" y="740"/>
      <point x="670" y="676"/>
      <point x="633" y="611" type="curve" smooth="yes"/>
      <point x="592" y="539"/>
      <point x="525" y="477"/>
      <point x="453" y="428" type="curve" smooth="yes"/>
      <point x="403" y="395"/>
      <point x="321" y="362"/>
      <point x="256" y="362" type="curve" smooth="yes"/>
      <point x="242" y="362"/>
      <point x="231" y="351"/>
      <point x="231" y="340" type="curve"/>
      <point x="248" y="224" type="line" smooth="yes"/>
      <point x="255" y="171"/>
      <point x="292" y="138"/>
      <point x="351" y="138" type="curve" smooth="yes"/>
      <point x="414" y="138"/>
      <point x="477" y="145"/>
      <point x="541" y="171" type="curve" smooth="yes"/>
      <point x="604" y="195"/>
      <point x="679" y="249"/>
      <point x="744" y="310" type="curve" smooth="yes"/>
      <point x="835" y="395"/>
      <point x="864" y="511"/>
      <point x="864" y="636" type="curve" smooth="yes"/>
      <point x="864" y="656"/>
      <point x="862" y="686"/>
      <point x="858" y="725" type="curve" smooth="yes"/>
      <point x="855" y="765"/>
      <point x="853" y="794"/>
      <point x="853" y="814" type="curve" smooth="yes"/>
      <point x="853" y="824"/>
      <point x="860" y="846"/>
      <point x="874" y="879" type="curve" smooth="yes"/>
      <point x="884" y="898"/>
      <point x="905" y="942"/>
      <point x="946" y="1009" type="curve" smooth="yes"/>
      <point x="956" y="1023"/>
      <point x="961" y="1029"/>
      <point x="970" y="1029" type="curve" smooth="yes"/>
      <point x="975" y="1029"/>
      <point x="980" y="1025"/>
      <point x="987" y="1016" type="curve" smooth="yes"/>
      <point x="1016" y="973"/>
      <point x="1029" y="908"/>
      <point x="1029" y="823" type="curve" smooth="yes"/>
      <point x="1029" y="753"/>
      <point x="1011" y="667"/>
      <point x="984" y="564" type="curve" smooth="yes"/>
      <point x="948" y="432"/>
      <point x="871" y="312"/>
      <point x="790" y="214" type="curve" smooth="yes"/>
      <point x="722" y="129"/>
      <point x="640" y="63"/>
      <point x="585" y="32" type="curve" smooth="yes"/>
      <point x="486" y="-20"/>
      <point x="400" y="-36"/>
      <point x="306" y="-36" type="curve" smooth="yes"/>
      <point x="233" y="-36"/>
      <point x="181" y="-9"/>
      <point x="151" y="45" type="curve" smooth="yes"/>
      <point x="131" y="77"/>
      <point x="123" y="129"/>
      <point x="120" y="200" type="curve" smooth="yes"/>
      <point x="116" y="256"/>
      <point x="108" y="312"/>
      <point x="97" y="366" type="curve" smooth="yes"/>
      <point x="84" y="424"/>
      <point x="70" y="473"/>
      <point x="53" y="500" type="curve" smooth="yes"/>
      <point x="41" y="522"/>
      <point x="36" y="534"/>
      <point x="36" y="547" type="curve" smooth="yes"/>
      <point x="36" y="563"/>
      <point x="43" y="575"/>
    </contour>
  </outline>
</glyph>
<glyph name="six.001" format="1">
  <advance width="896"/>
  <outline>
    <contour>
      <point x="174" y="518" type="curve" smooth="yes"/>
      <point x="236" y="643"/>
      <point x="403" y="879"/>
      <point x="498" y="985" type="curve" smooth="yes"/>
      <point x="513" y="1000"/>
      <point x="529" y="1009"/>
      <point x="536" y="1014" type="curve" smooth="yes"/>
      <point x="557" y="1027"/>
      <point x="670" y="1074"/>
      <point x="692" y="1074" type="curve" smooth="yes"/>
      <point x="701" y="1074"/>
      <point x="706" y="1068"/>
      <point x="706" y="1062" type="curve" smooth="yes"/>
      <point x="706" y="1050"/>
      <point x="663" y="1000"/>
      <point x="648" y="980" type="curve" smooth="yes"/>
      <point x="617" y="935"/>
      <point x="419" y="665"/>
      <point x="419" y="648" type="curve" smooth="yes"/>
      <point x="419" y="647"/>
      <point x="423" y="643"/>
      <point x="423" y="643" type="curve" smooth="yes"/>
      <point x="424" y="643"/>
      <point x="431" y="660"/>
      <point x="509" y="660" type="curve" smooth="yes"/>
      <point x="600" y="660"/>
      <point x="676" y="624"/>
      <point x="717" y="583" type="curve" smooth="yes"/>
      <point x="769" y="530"/>
      <point x="805" y="450"/>
      <point x="805" y="349" type="curve" smooth="yes"/>
      <point x="805" y="246"/>
      <point x="732" y="137"/>
      <point x="650" y="65" type="curve" smooth="yes"/>
      <point x="583" y="5"/>
      <point x="493" y="-29"/>
      <point x="407" y="-29" type="curve" smooth="yes"/>
      <point x="249" y="-29"/>
      <point x="101" y="120"/>
      <point x="101" y="277" type="curve" smooth="yes"/>
      <point x="101" y="371"/>
      <point x="140" y="450"/>
    </contour>
    <contour>
      <point x="609" y="434" type="curve" smooth="yes"/>
      <point x="573" y="484"/>
      <point x="506" y="522"/>
      <point x="438" y="522" type="curve" smooth="yes"/>
      <point x="328" y="522"/>
      <point x="255" y="445"/>
      <point x="255" y="330" type="curve" smooth="yes"/>
      <point x="255" y="215"/>
      <point x="344" y="131"/>
      <point x="462" y="131" type="curve" smooth="yes"/>
      <point x="592" y="131"/>
      <point x="650" y="181"/>
      <point x="650" y="310" type="curve" smooth="yes"/>
      <point x="650" y="342"/>
      <point x="634" y="400"/>
    </contour>
  </outline>
</glyph>
<glyph name="two.001" format="1">
  <advance width="896"/>
  <outline>
    <contour>
      <point x="125" y="34" type="curve" smooth="yes"/>
      <point x="171" y="158"/>
      <point x="277" y="296"/>
      <point x="326" y="355" type="curve" smooth="yes"/>
      <point x="402" y="450"/>
      <point x="539" y="597"/>
      <point x="539" y="711" type="curve" smooth="yes"/>
      <point x="539" y="771"/>
      <point x="494" y="841"/>
      <point x="421" y="867" type="curve" smooth="yes"/>
      <point x="371" y="889"/>
      <point x="265" y="903"/>
      <point x="202" y="903" type="curve" smooth="yes"/>
      <point x="186" y="903"/>
      <point x="178" y="910"/>
      <point x="178" y="920" type="curve" smooth="yes"/>
      <point x="178" y="921"/>
      <point x="181" y="930"/>
      <point x="185" y="935" type="curve" smooth="yes"/>
      <point x="200" y="963"/>
      <point x="238" y="1016"/>
      <point x="267" y="1048" type="curve" smooth="yes"/>
      <point x="270" y="1054"/>
      <point x="285" y="1067"/>
      <point x="301" y="1067" type="curve" smooth="yes"/>
      <point x="319" y="1067"/>
      <point x="333" y="1067"/>
      <point x="357" y="1062" type="curve" smooth="yes"/>
      <point x="459" y="1047"/>
      <point x="583" y="1018"/>
      <point x="643" y="948" type="curve" smooth="yes"/>
      <point x="684" y="900"/>
      <point x="708" y="858"/>
      <point x="708" y="774" type="curve" smooth="yes"/>
      <point x="708" y="688"/>
      <point x="638" y="590"/>
      <point x="563" y="494" type="curve" smooth="yes"/>
      <point x="489" y="405"/>
      <point x="362" y="221"/>
      <point x="361" y="185" type="curve" smooth="yes"/>
      <point x="361" y="174"/>
      <point x="364" y="169"/>
      <point x="371" y="169" type="curve" smooth="yes"/>
      <point x="797" y="169" type="line" smooth="yes"/>
      <point x="809" y="169"/>
      <point x="814" y="163"/>
      <point x="814" y="156" type="curve" smooth="yes"/>
      <point x="814" y="152"/>
      <point x="809" y="144"/>
      <point x="805" y="138" type="curve" smooth="yes"/>
      <point x="794" y="118"/>
      <point x="744" y="38"/>
      <point x="718" y="14" type="curve" smooth="yes"/>
      <point x="710" y="5"/>
      <point x="699" y="2"/>
      <point x="690" y="2" type="curve"/>
      <point x="147" y="2" type="line"/>
      <point x="129" y="2"/>
      <point x="122" y="7"/>
      <point x="122" y="20" type="curve" smooth="yes"/>
      <point x="122" y="25"/>
      <point x="123" y="29"/>
    </contour>
  </outline>
</glyph>
